<svg xmlns="http://www.w3.org/2000/svg" width="843" height="1264" viewBox="0 0 186 280">
<path fill="#dddddc" fill-rule="evenodd" d="M 60,261 L 57,262 L 55,265 Z M 0,165 L 0,223 L 6,218 L 62,218 L 63,199 L 64,198 L 66,175 L 67,174 L 67,169 L 66,168 L 65,170 L 62,169 L 56,164 L 31,164 L 30,165 L 29,164 L 28,165 L 27,164 L 25,165 L 24,164 L 9,164 L 8,165 L 5,164 Z M 132,164 L 142,177 L 164,200 L 163,202 L 161,202 L 153,196 L 130,172 L 131,184 L 132,185 L 137,218 L 181,218 L 185,222 L 185,163 Z M 92,98 L 89,100 L 87,98 L 82,99 L 81,101 L 85,105 L 84,106 L 82,105 L 85,108 L 84,110 L 85,108 L 86,109 L 85,108 L 89,106 L 90,107 L 90,105 L 93,103 L 91,102 L 93,100 Z M 86,106 L 87,105 L 89,106 L 88,107 Z M 89,102 L 90,101 L 91,102 L 90,103 Z M 81,101 L 82,100 L 83,101 L 82,102 Z"/>
<path fill="#887763" fill-rule="evenodd" d="M 72,272 L 72,273 L 75,274 L 77,273 L 77,272 Z M 15,271 L 19,270 L 15,270 Z M 42,269 L 39,273 L 38,272 L 38,274 L 41,277 L 45,274 L 42,275 L 39,274 Z M 27,265 L 26,267 L 24,267 L 25,268 L 21,272 L 26,269 Z M 76,261 L 77,265 L 84,268 L 87,268 L 89,270 L 87,268 L 88,263 L 82,263 L 81,262 L 82,260 L 78,262 Z M 61,260 L 55,261 L 55,263 L 57,261 L 59,262 L 55,266 L 54,265 L 54,267 Z M 58,261 L 59,260 L 61,261 L 60,262 Z M 8,268 L 13,270 L 12,269 L 13,266 L 16,266 L 17,267 L 16,268 L 17,268 L 19,265 L 22,264 L 18,265 L 17,262 L 12,259 L 17,263 L 18,266 L 17,267 L 13,266 L 11,269 L 8,266 Z M 24,258 L 22,258 L 20,260 L 20,262 L 21,260 L 23,261 L 22,259 Z M 17,258 L 20,256 L 18,257 L 17,256 Z M 52,260 L 50,261 L 48,258 L 49,255 L 48,258 L 43,260 L 42,262 L 44,261 L 47,262 L 49,261 L 50,262 Z M 46,260 L 47,259 L 48,261 L 47,262 Z M 88,254 L 85,257 L 88,256 Z M 62,256 L 61,257 L 58,254 L 57,257 L 55,256 L 54,257 L 55,256 L 57,259 L 56,258 L 60,256 L 62,257 Z M 159,251 L 156,253 L 159,256 L 162,253 Z M 71,229 L 70,229 L 70,235 Z M 85,228 L 84,230 L 85,232 L 83,233 L 84,237 L 86,231 Z M 69,222 L 65,223 L 63,221 L 66,219 L 65,218 L 62,219 L 6,219 L 61,219 L 64,223 L 63,224 L 59,223 L 57,225 L 57,227 L 53,231 L 53,232 L 57,233 L 53,234 L 54,235 L 56,235 L 58,231 L 63,230 L 59,228 L 63,227 L 66,224 L 67,225 Z M 59,230 L 60,229 L 61,230 L 60,231 Z M 56,230 L 57,229 L 59,230 L 58,231 Z M 58,229 L 59,228 L 60,229 L 59,230 Z M 65,224 L 64,226 L 61,227 L 59,225 L 64,223 Z M 62,220 L 63,219 L 64,220 L 63,221 Z M 99,203 L 98,212 L 106,211 L 102,205 L 101,205 L 100,210 L 98,208 Z M 101,210 L 102,209 L 103,210 L 102,211 Z M 98,210 L 99,209 L 100,211 L 99,212 Z M 102,208 L 103,207 L 104,208 L 103,209 Z M 74,203 L 70,207 L 73,208 L 72,206 L 75,204 L 76,209 L 81,214 L 77,210 L 77,204 Z M 75,183 L 73,188 L 74,192 L 73,189 L 76,187 L 75,188 L 74,187 Z M 75,179 L 76,181 L 77,180 Z M 82,178 L 79,181 L 80,184 L 82,185 L 80,187 L 81,188 L 78,194 L 83,192 L 82,191 L 83,189 L 81,188 L 83,182 Z M 79,192 L 80,191 L 81,192 L 80,193 Z M 80,189 L 81,188 L 82,189 L 81,190 Z M 101,176 L 103,179 L 102,180 L 100,179 L 101,180 L 100,182 L 102,183 L 99,185 L 99,188 L 102,191 L 100,192 L 103,194 L 100,195 L 99,198 L 101,196 L 103,199 L 101,200 L 104,203 L 102,202 L 104,201 L 102,200 L 105,197 L 103,195 L 105,193 L 103,193 L 102,191 L 103,190 L 104,191 L 103,188 L 105,187 L 103,184 L 105,181 L 103,180 L 105,178 L 103,176 Z M 102,189 L 103,188 L 104,189 L 103,190 Z M 99,185 L 101,184 L 103,187 L 101,188 Z M 102,183 L 103,182 L 104,183 L 103,184 Z M 101,182 L 102,181 L 103,182 L 102,183 Z M 87,173 L 85,173 L 87,175 L 86,177 Z M 85,167 L 84,169 L 85,171 L 87,170 Z M 67,166 L 65,167 L 68,169 L 68,172 Z M 87,150 L 87,156 L 86,157 L 83,156 L 87,158 L 86,163 L 87,162 L 88,163 L 86,161 L 88,159 L 86,157 L 88,152 Z M 70,141 L 69,147 L 66,152 L 67,153 L 67,161 L 71,142 Z M 185,138 L 125,139 L 131,164 L 136,170 L 131,164 L 132,163 L 185,162 Z M 91,136 L 90,137 L 85,136 L 84,138 L 87,139 L 86,141 L 85,140 L 84,141 L 85,143 L 84,144 L 85,147 L 84,148 L 85,149 L 84,153 L 85,153 L 85,149 L 89,145 L 92,146 L 92,144 L 91,145 L 89,143 L 90,142 L 89,140 L 91,138 Z M 84,146 L 85,145 L 88,146 L 86,148 Z M 88,144 L 89,143 L 90,144 L 89,145 Z M 85,143 L 86,142 L 87,143 L 86,144 Z M 81,135 L 77,135 L 79,139 L 75,143 L 78,145 L 76,146 L 77,149 L 76,150 L 78,151 L 75,153 L 76,157 L 77,157 L 77,152 L 79,148 L 78,146 L 80,142 Z M 102,134 L 100,134 L 100,138 L 101,138 L 100,136 Z M 116,133 L 114,132 L 112,134 L 107,135 L 108,137 L 104,143 L 106,142 L 111,135 L 114,135 Z M 88,126 L 90,128 L 93,126 L 95,127 L 92,125 Z M 79,126 L 79,128 L 83,128 L 82,127 L 83,125 Z M 75,125 L 74,125 L 74,130 Z M 65,128 L 61,125 L 62,126 L 62,132 L 64,133 L 62,135 L 61,134 L 62,137 L 61,138 L 63,139 L 60,140 L 59,144 L 58,139 L 7,139 L 6,140 L 2,139 L 0,140 L 0,164 L 5,163 L 7,164 L 9,163 L 24,163 L 25,164 L 26,163 L 28,164 L 29,163 L 30,164 L 31,163 L 56,163 L 60,167 L 63,168 L 60,167 L 57,164 L 60,163 L 59,159 L 62,154 L 64,157 L 62,161 L 65,163 L 64,161 L 64,152 L 60,150 L 59,151 L 57,148 L 62,146 L 61,143 L 63,139 L 62,135 L 64,133 L 63,132 L 65,130 L 64,129 Z M 57,151 L 58,150 L 59,151 L 58,152 Z M 61,143 L 62,146 L 60,147 L 59,145 Z M 57,144 L 58,143 L 59,145 L 58,146 Z M 60,142 L 61,141 L 62,142 L 61,143 Z M 61,136 L 62,135 L 63,136 L 62,137 Z M 62,131 L 63,130 L 64,131 L 63,132 Z M 62,129 L 63,128 L 64,129 L 63,130 Z M 62,127 L 63,126 L 64,127 L 63,128 Z M 130,112 L 128,115 L 130,114 Z M 69,108 L 67,109 L 66,108 L 67,110 L 64,113 L 64,119 L 66,120 L 63,121 L 63,124 L 65,124 L 66,120 L 65,116 L 67,114 L 65,113 L 69,110 Z M 69,100 L 66,103 L 67,105 L 69,103 Z M 106,86 L 106,89 L 107,88 Z M 110,78 L 108,77 L 105,84 L 109,83 Z M 81,77 L 79,77 L 78,82 L 80,83 L 78,85 L 77,84 L 77,85 L 80,85 Z M 91,68 L 89,69 L 86,75 L 85,81 L 83,82 L 85,83 L 83,85 L 84,86 L 81,87 L 82,89 L 81,90 L 80,89 L 79,91 L 78,87 L 76,88 L 77,89 L 76,92 L 80,96 L 80,99 L 77,106 L 78,111 L 80,115 L 83,116 L 81,117 L 84,119 L 85,118 L 86,120 L 88,120 L 89,116 L 94,115 L 97,113 L 94,115 L 90,114 L 94,110 L 93,109 L 97,103 L 96,102 L 97,101 L 96,97 L 97,95 L 102,91 L 101,89 L 100,90 L 99,89 L 100,87 L 99,86 L 97,89 L 96,88 L 102,77 L 98,83 L 95,82 L 103,72 L 104,73 L 103,75 L 105,72 L 104,73 L 102,71 L 99,73 L 98,71 L 95,72 Z M 86,118 L 87,117 L 89,118 L 88,119 Z M 82,117 L 83,116 L 86,117 L 84,119 Z M 86,116 L 87,115 L 88,116 L 87,117 Z M 88,115 L 89,114 L 91,115 L 90,116 Z M 82,114 L 83,113 L 84,114 L 83,115 Z M 79,111 L 80,110 L 81,111 L 80,112 Z M 78,110 L 79,109 L 80,110 L 79,111 Z M 85,109 L 86,108 L 87,109 L 86,110 Z M 83,109 L 84,108 L 85,110 L 84,111 Z M 78,108 L 79,107 L 80,108 L 79,109 Z M 80,101 L 81,100 L 82,101 L 81,102 Z M 83,97 L 87,97 L 89,99 L 92,97 L 94,99 L 92,102 L 94,103 L 91,105 L 90,108 L 87,106 L 89,107 L 85,109 L 81,106 L 82,104 L 84,105 L 81,103 L 82,101 L 81,99 Z M 89,97 L 90,96 L 91,97 L 90,98 Z M 80,97 L 81,96 L 82,97 L 81,98 Z M 82,96 L 83,95 L 84,96 L 83,97 Z M 96,94 L 97,96 L 95,98 L 94,96 Z M 94,94 L 95,93 L 96,94 L 95,95 Z M 93,93 L 95,95 L 91,97 L 90,96 Z M 79,94 L 80,93 L 81,94 L 80,95 Z M 93,93 L 94,92 L 95,93 L 94,94 Z M 86,93 L 87,92 L 89,95 L 88,96 Z M 78,93 L 79,92 L 80,93 L 79,94 Z M 96,92 L 97,91 L 98,92 L 97,93 Z M 90,91 L 91,93 L 89,94 L 88,93 Z M 94,91 L 95,90 L 96,91 L 95,92 Z M 92,91 L 93,90 L 94,91 L 93,92 Z M 90,91 L 91,90 L 92,91 L 91,92 Z M 83,90 L 86,95 L 85,96 L 82,94 Z M 98,90 L 99,89 L 100,90 L 99,91 Z M 86,89 L 87,92 L 85,93 L 84,92 Z M 83,90 L 84,89 L 85,90 L 84,91 Z M 95,89 L 96,88 L 97,90 L 96,91 Z M 87,89 L 88,88 L 89,89 L 88,90 Z M 88,85 L 89,84 L 90,85 L 89,86 Z M 95,82 L 97,85 L 94,87 L 94,89 L 92,91 L 91,86 Z M 91,78 L 92,76 L 94,77 L 92,79 Z M 94,76 L 95,75 L 96,76 L 95,77 Z M 88,81 L 88,75 L 89,74 L 92,79 L 91,81 L 98,74 L 100,75 L 92,85 L 91,83 L 90,85 Z M 87,74 L 89,83 L 88,85 L 87,84 L 89,86 L 86,88 L 85,87 L 85,79 Z M 99,74 L 100,73 L 101,74 L 100,75 Z M 96,74 L 97,73 L 98,74 L 97,75 Z M 93,74 L 94,73 L 95,74 L 94,75 Z M 90,74 L 91,73 L 92,75 L 91,76 Z M 87,74 L 88,73 L 89,74 L 88,75 Z M 100,73 L 101,72 L 102,73 L 101,74 Z M 101,72 L 102,71 L 103,72 L 102,73 Z M 84,61 L 85,63 L 88,62 L 88,61 Z M 94,50 L 92,51 L 88,50 L 87,56 L 90,57 L 90,54 Z M 90,41 L 85,41 L 83,46 L 85,48 L 82,54 L 85,47 L 90,45 Z M 85,45 L 86,44 L 88,45 L 87,46 Z M 87,36 L 90,35 L 87,35 Z M 90,17 L 84,20 L 83,28 L 81,31 L 82,37 L 83,36 L 81,35 L 83,33 L 85,34 L 84,32 L 86,30 L 88,32 L 94,33 L 93,32 L 94,31 L 90,29 L 86,30 L 83,28 L 86,22 L 89,21 Z"/>
<path fill="#6c4a2c" fill-rule="evenodd" d="M 78,272 L 77,274 L 79,274 Z M 142,265 L 142,266 L 144,266 L 144,265 Z M 136,257 L 138,259 L 140,258 L 141,259 L 141,258 Z M 128,257 L 125,257 L 123,260 L 121,260 L 125,260 Z M 92,255 L 91,254 L 88,257 L 85,258 L 84,256 L 87,254 L 84,253 L 81,256 L 80,255 L 76,256 L 74,258 L 72,257 L 68,258 L 69,259 L 70,258 L 72,260 L 71,262 L 69,262 L 67,260 L 62,260 L 63,262 L 64,261 L 67,262 L 70,265 L 70,263 L 72,262 L 73,266 L 75,266 L 75,261 L 76,260 L 78,261 L 80,260 L 79,259 L 80,258 L 82,258 L 83,259 L 82,262 L 83,261 L 86,262 L 85,261 L 88,259 L 90,261 L 89,262 L 89,267 L 84,270 L 90,271 L 91,267 L 90,262 Z M 87,269 L 89,268 L 90,270 L 89,271 Z M 86,259 L 87,258 L 88,259 L 87,260 Z M 83,260 L 84,258 L 86,259 L 84,261 Z M 77,258 L 78,257 L 80,258 L 79,259 Z M 74,258 L 75,257 L 77,259 L 75,260 Z M 70,258 L 71,257 L 72,258 L 71,259 Z M 75,257 L 76,256 L 78,257 L 77,258 Z M 79,256 L 80,255 L 81,256 L 80,257 Z M 115,251 L 106,254 L 105,253 L 99,253 L 98,254 L 99,255 L 97,257 L 97,260 L 99,259 L 103,260 L 104,259 L 107,261 L 112,261 L 109,259 L 106,260 L 104,259 L 106,257 L 110,257 L 113,252 Z M 107,260 L 108,259 L 109,260 L 108,261 Z M 102,259 L 103,258 L 104,259 L 103,260 Z M 109,254 L 110,253 L 112,254 L 111,255 Z M 107,254 L 108,253 L 109,254 L 108,255 Z M 104,254 L 105,253 L 106,254 L 105,255 Z M 98,254 L 99,253 L 100,254 L 99,255 Z M 78,251 L 78,249 L 76,250 Z M 0,249 L 1,250 L 0,255 L 1,252 Z M 7,241 L 6,240 L 0,242 L 3,245 L 2,244 Z M 126,236 L 127,245 L 128,239 Z M 129,233 L 128,235 L 131,239 L 131,241 L 130,233 Z M 72,225 L 70,227 L 68,224 L 67,226 L 66,225 L 64,227 L 65,228 L 64,229 L 61,228 L 64,229 L 65,232 L 64,227 L 67,226 L 68,227 L 67,228 L 68,230 L 67,233 L 68,233 L 69,228 L 71,228 L 72,231 L 71,228 Z M 67,228 L 68,227 L 69,228 L 68,229 Z M 46,223 L 50,223 L 49,222 Z M 0,258 L 1,259 L 0,260 L 0,266 L 2,267 L 0,268 L 0,271 L 2,272 L 0,273 L 1,278 L 0,279 L 1,278 L 2,279 L 5,278 L 6,279 L 14,279 L 15,278 L 16,279 L 17,278 L 19,279 L 22,278 L 23,279 L 27,278 L 34,279 L 32,278 L 33,277 L 38,279 L 45,277 L 47,279 L 48,278 L 52,279 L 53,278 L 54,279 L 56,278 L 60,279 L 65,278 L 67,279 L 74,279 L 75,278 L 76,279 L 77,278 L 79,279 L 89,279 L 91,277 L 93,279 L 95,277 L 97,277 L 98,278 L 97,279 L 113,279 L 114,278 L 115,279 L 127,279 L 128,278 L 129,279 L 136,279 L 137,278 L 139,279 L 147,279 L 148,278 L 149,279 L 153,278 L 163,279 L 166,277 L 167,278 L 166,279 L 169,279 L 165,275 L 169,273 L 174,275 L 172,276 L 171,279 L 175,279 L 173,277 L 176,276 L 174,274 L 175,272 L 176,273 L 178,272 L 179,273 L 178,274 L 184,279 L 182,277 L 185,275 L 184,274 L 182,277 L 181,274 L 178,272 L 179,270 L 180,271 L 183,270 L 184,271 L 183,272 L 184,271 L 185,272 L 184,270 L 185,268 L 184,269 L 183,268 L 185,265 L 183,264 L 185,263 L 184,262 L 185,258 L 184,257 L 183,258 L 176,258 L 175,257 L 177,255 L 179,256 L 177,255 L 180,254 L 177,254 L 175,259 L 173,258 L 174,255 L 172,256 L 170,255 L 169,257 L 168,256 L 167,257 L 172,258 L 173,259 L 172,261 L 176,258 L 178,260 L 177,259 L 179,258 L 181,261 L 180,265 L 178,267 L 171,266 L 170,268 L 168,265 L 169,268 L 167,270 L 164,269 L 165,267 L 164,269 L 161,267 L 160,268 L 151,268 L 148,272 L 145,269 L 143,269 L 143,271 L 140,274 L 137,273 L 139,270 L 138,271 L 133,271 L 130,273 L 129,272 L 132,275 L 131,278 L 127,278 L 126,277 L 129,276 L 126,276 L 124,274 L 122,274 L 121,273 L 123,272 L 120,272 L 121,273 L 120,275 L 117,275 L 115,273 L 112,276 L 111,273 L 110,273 L 111,275 L 110,276 L 100,279 L 98,278 L 98,276 L 99,275 L 102,276 L 100,275 L 103,273 L 94,274 L 92,276 L 91,275 L 84,276 L 88,276 L 89,277 L 88,279 L 81,277 L 66,277 L 65,276 L 63,277 L 60,276 L 59,278 L 57,278 L 56,275 L 58,274 L 56,273 L 54,274 L 53,272 L 50,272 L 48,274 L 44,270 L 42,270 L 38,264 L 39,263 L 42,264 L 46,262 L 49,264 L 48,265 L 50,264 L 54,268 L 53,267 L 54,261 L 58,260 L 58,258 L 56,259 L 55,257 L 57,256 L 58,253 L 61,255 L 60,257 L 62,258 L 60,257 L 62,255 L 63,256 L 67,255 L 65,254 L 66,253 L 70,254 L 74,253 L 73,251 L 74,249 L 79,246 L 79,244 L 77,247 L 72,242 L 72,240 L 68,242 L 67,241 L 68,240 L 64,239 L 62,240 L 64,241 L 62,245 L 59,240 L 58,241 L 56,240 L 57,238 L 55,239 L 54,238 L 53,240 L 51,237 L 52,236 L 56,236 L 60,232 L 62,232 L 62,231 L 58,232 L 58,234 L 56,236 L 54,236 L 52,234 L 53,233 L 52,231 L 56,227 L 56,225 L 59,222 L 63,223 L 61,220 L 60,220 L 61,221 L 55,225 L 46,225 L 45,226 L 41,224 L 35,226 L 32,225 L 32,226 L 36,227 L 35,230 L 33,232 L 29,233 L 28,231 L 32,230 L 27,227 L 29,226 L 28,225 L 24,231 L 23,230 L 22,231 L 23,232 L 14,241 L 13,239 L 11,242 L 13,240 L 14,242 L 11,245 L 10,244 L 8,249 L 4,248 L 6,246 L 2,247 L 5,250 L 3,252 L 4,255 Z M 162,278 L 163,277 L 164,278 L 163,279 Z M 121,278 L 122,277 L 124,278 L 123,279 Z M 109,278 L 110,277 L 111,278 L 110,279 Z M 67,278 L 68,277 L 69,278 L 68,279 Z M 63,278 L 64,277 L 65,278 L 64,279 Z M 24,278 L 25,277 L 26,278 L 25,279 Z M 135,277 L 136,276 L 137,277 L 136,278 Z M 123,277 L 124,276 L 125,277 L 124,278 Z M 118,277 L 119,276 L 120,277 L 119,278 Z M 115,277 L 116,276 L 117,277 L 116,278 Z M 111,277 L 112,276 L 113,277 L 112,278 Z M 50,277 L 51,276 L 52,277 L 51,278 Z M 29,277 L 30,276 L 33,277 L 32,278 Z M 26,277 L 27,276 L 28,277 L 27,278 Z M 19,277 L 20,276 L 21,277 L 20,278 Z M 17,277 L 18,276 L 19,277 L 18,278 Z M 7,277 L 8,276 L 9,277 L 8,278 Z M 152,276 L 153,275 L 154,276 L 153,277 Z M 144,276 L 145,275 L 146,276 L 145,277 Z M 138,276 L 139,275 L 140,276 L 139,277 Z M 46,276 L 47,275 L 50,276 L 49,277 Z M 0,276 L 1,275 L 4,277 L 1,278 Z M 141,275 L 142,274 L 143,275 L 142,276 Z M 120,275 L 122,274 L 123,276 L 121,277 Z M 22,275 L 23,274 L 28,274 L 30,276 L 29,277 L 27,276 L 23,277 Z M 19,275 L 20,274 L 21,275 L 20,276 Z M 8,275 L 9,274 L 10,275 L 9,276 Z M 5,275 L 6,274 L 7,275 L 6,276 Z M 163,274 L 164,273 L 166,274 L 165,275 Z M 162,273 L 163,276 L 161,278 L 157,279 L 156,278 Z M 155,274 L 156,273 L 157,274 L 156,275 Z M 153,274 L 154,273 L 155,274 L 154,275 Z M 50,274 L 51,273 L 52,274 L 51,275 Z M 39,275 L 41,273 L 46,274 L 41,278 Z M 159,273 L 160,272 L 161,273 L 160,274 Z M 147,273 L 148,272 L 149,273 L 148,274 Z M 145,273 L 146,272 L 147,274 L 146,275 Z M 131,273 L 133,272 L 138,274 L 137,275 L 132,275 Z M 17,273 L 18,272 L 19,273 L 18,274 Z M 12,273 L 13,272 L 16,273 L 15,274 Z M 1,273 L 2,272 L 4,273 L 3,274 Z M 164,272 L 165,271 L 166,272 L 165,273 Z M 158,272 L 159,271 L 160,272 L 159,273 Z M 37,272 L 38,271 L 40,274 L 38,275 Z M 35,271 L 36,275 L 34,276 L 33,275 Z M 20,272 L 21,271 L 22,272 L 21,273 Z M 8,272 L 9,271 L 10,272 L 9,273 Z M 5,272 L 6,271 L 7,272 L 6,273 Z M 173,271 L 174,270 L 176,271 L 175,272 Z M 150,270 L 151,271 L 150,274 L 149,273 Z M 3,271 L 4,270 L 5,271 L 4,272 Z M 180,270 L 181,269 L 182,270 L 181,271 Z M 41,269 L 42,272 L 40,273 L 39,272 Z M 38,270 L 39,269 L 40,270 L 39,271 Z M 36,270 L 37,269 L 38,270 L 37,271 Z M 14,271 L 15,269 L 20,270 L 18,272 Z M 6,270 L 7,269 L 8,270 L 7,271 Z M 154,269 L 155,268 L 158,269 L 156,272 Z M 153,268 L 154,269 L 151,271 L 150,270 Z M 1,269 L 2,268 L 3,269 L 2,270 Z M 29,268 L 30,267 L 32,268 L 31,269 Z M 183,268 L 182,270 L 181,269 L 178,271 L 176,270 L 180,266 Z M 173,266 L 174,268 L 171,270 L 170,268 Z M 37,267 L 38,266 L 39,267 L 38,268 Z M 19,267 L 20,266 L 22,267 L 21,268 Z M 17,266 L 18,268 L 16,269 L 15,268 Z M 5,267 L 6,266 L 7,268 L 6,269 Z M 182,266 L 183,265 L 184,266 L 183,267 Z M 12,266 L 13,265 L 17,266 L 16,267 Z M 7,266 L 8,265 L 11,268 L 12,266 L 14,270 L 11,271 L 7,268 Z M 36,265 L 37,264 L 38,265 L 37,266 Z M 27,264 L 28,265 L 27,269 L 22,272 L 21,270 L 24,268 L 22,267 L 26,266 Z M 17,266 L 18,264 L 22,265 L 18,267 Z M 0,265 L 1,264 L 3,265 L 2,266 Z M 50,264 L 51,263 L 52,264 L 51,265 Z M 28,264 L 31,263 L 32,265 L 35,265 L 36,267 L 35,268 L 31,267 Z M 21,264 L 22,263 L 23,264 L 22,265 Z M 5,264 L 6,263 L 7,264 L 6,265 Z M 180,263 L 182,262 L 183,264 L 182,265 Z M 31,263 L 32,262 L 37,262 L 38,263 L 37,264 L 32,264 Z M 23,263 L 24,262 L 27,263 L 26,264 Z M 10,263 L 11,262 L 12,263 L 11,264 Z M 0,263 L 1,262 L 2,263 L 1,264 Z M 28,262 L 29,261 L 31,262 L 30,263 Z M 22,261 L 23,260 L 24,261 L 23,262 Z M 4,261 L 5,260 L 6,261 L 5,262 Z M 1,261 L 2,260 L 4,261 L 3,262 Z M 182,260 L 183,259 L 184,260 L 183,261 Z M 33,260 L 35,259 L 40,261 L 35,262 Z M 29,260 L 30,259 L 31,260 L 30,261 Z M 56,259 L 57,258 L 58,259 L 57,260 Z M 39,259 L 40,258 L 43,259 L 42,260 Z M 31,259 L 32,258 L 33,259 L 32,260 Z M 11,259 L 12,258 L 18,262 L 18,264 L 17,265 Z M 29,258 L 30,257 L 31,258 L 30,259 Z M 24,257 L 25,258 L 20,263 L 19,260 L 22,257 Z M 13,258 L 14,257 L 16,258 L 15,259 Z M 6,258 L 7,257 L 8,258 L 7,259 Z M 3,258 L 4,257 L 5,259 L 4,260 Z M 170,257 L 171,256 L 173,257 L 172,258 Z M 53,257 L 54,256 L 55,257 L 54,258 Z M 37,257 L 38,256 L 39,257 L 38,258 Z M 54,256 L 55,255 L 56,256 L 55,257 Z M 41,256 L 42,255 L 43,256 L 42,257 Z M 16,258 L 17,255 L 21,256 L 18,259 Z M 7,256 L 8,255 L 9,256 L 8,257 Z M 49,254 L 51,256 L 49,257 L 50,260 L 51,259 L 53,260 L 50,263 L 49,262 L 47,263 L 46,262 L 47,260 L 46,262 L 42,263 L 41,261 L 43,259 L 47,258 L 47,256 Z M 40,255 L 41,254 L 42,255 L 41,256 Z M 27,254 L 29,256 L 28,259 L 29,260 L 27,263 L 25,261 L 26,259 L 25,258 L 27,257 L 26,256 Z M 52,256 L 53,253 L 55,255 L 53,257 Z M 50,254 L 51,253 L 52,255 L 51,256 Z M 34,254 L 35,253 L 37,254 L 36,255 Z M 33,253 L 34,255 L 32,256 L 31,255 Z M 29,254 L 30,253 L 31,254 L 30,255 Z M 3,254 L 4,253 L 5,254 L 4,255 Z M 62,253 L 63,252 L 65,254 L 63,255 Z M 55,253 L 56,252 L 57,253 L 56,254 Z M 45,253 L 46,252 L 47,254 L 46,255 Z M 44,252 L 46,255 L 45,257 L 42,255 Z M 36,253 L 37,252 L 38,253 L 37,254 Z M 30,253 L 31,252 L 33,253 L 32,254 Z M 22,253 L 23,252 L 25,253 L 24,254 Z M 53,252 L 54,251 L 55,252 L 54,253 Z M 40,252 L 41,251 L 43,253 L 41,254 Z M 25,252 L 26,251 L 27,252 L 26,253 Z M 59,251 L 60,250 L 61,251 L 60,252 Z M 54,251 L 55,250 L 57,251 L 56,252 Z M 49,252 L 50,250 L 52,251 L 50,253 Z M 44,251 L 45,250 L 47,251 L 46,252 Z M 41,251 L 42,250 L 43,251 L 42,252 Z M 33,251 L 34,250 L 37,252 L 34,253 Z M 26,251 L 27,250 L 28,251 L 27,252 Z M 4,252 L 5,250 L 7,251 L 5,253 Z M 57,250 L 58,249 L 60,250 L 59,251 Z M 27,250 L 29,249 L 32,251 L 29,253 Z M 42,249 L 43,248 L 44,249 L 43,250 Z M 23,249 L 24,248 L 25,249 L 24,250 Z M 6,249 L 7,248 L 8,249 L 7,250 Z M 73,248 L 74,247 L 75,248 L 74,249 Z M 55,248 L 56,247 L 58,248 L 57,249 Z M 50,248 L 51,247 L 53,248 L 52,249 Z M 32,248 L 33,247 L 34,248 L 33,249 Z M 44,248 L 47,246 L 49,248 L 48,249 Z M 19,246 L 23,249 L 22,250 L 20,249 L 22,252 L 21,253 L 16,251 Z M 63,252 L 63,248 L 65,245 L 67,248 L 71,250 L 66,253 Z M 61,246 L 62,245 L 63,246 L 62,247 Z M 47,246 L 48,245 L 49,246 L 48,247 Z M 45,246 L 46,245 L 47,246 L 46,247 Z M 38,246 L 39,245 L 41,246 L 40,247 Z M 22,246 L 27,245 L 28,248 L 26,249 L 25,248 L 26,247 L 23,248 Z M 66,245 L 67,244 L 69,247 L 68,248 Z M 63,245 L 64,244 L 65,245 L 64,246 Z M 56,245 L 58,244 L 59,246 L 58,247 Z M 46,245 L 47,244 L 48,245 L 47,246 Z M 27,245 L 29,244 L 31,246 L 30,247 L 32,248 L 29,249 Z M 20,245 L 21,244 L 22,245 L 21,246 Z M 9,245 L 10,244 L 11,245 L 10,246 Z M 70,244 L 71,243 L 72,244 L 71,245 Z M 50,244 L 51,243 L 53,245 L 51,246 Z M 31,244 L 32,243 L 34,244 L 33,245 Z M 24,244 L 25,243 L 26,244 L 25,245 Z M 71,243 L 72,242 L 73,243 L 72,244 Z M 44,242 L 46,243 L 45,246 L 42,245 Z M 64,242 L 65,241 L 67,242 L 66,243 Z M 39,242 L 40,241 L 41,242 L 40,243 Z M 55,241 L 56,240 L 57,241 L 56,242 Z M 45,241 L 46,240 L 48,241 L 47,242 Z M 51,239 L 52,242 L 48,243 L 47,242 Z M 43,240 L 44,239 L 45,240 L 44,241 Z M 48,239 L 49,238 L 50,239 L 49,240 Z M 44,239 L 45,238 L 46,239 L 45,240 Z M 40,239 L 42,238 L 43,240 L 42,241 Z M 37,238 L 40,241 L 37,242 L 39,244 L 38,247 L 36,248 L 35,247 L 36,245 L 34,243 Z M 23,239 L 24,238 L 25,239 L 24,240 Z M 49,238 L 50,237 L 52,238 L 51,239 Z M 43,238 L 44,237 L 45,238 L 44,239 Z M 44,237 L 45,236 L 46,237 L 45,238 Z M 37,238 L 40,235 L 43,236 L 42,238 L 39,239 Z M 32,235 L 33,234 L 34,235 L 33,236 Z M 19,235 L 20,234 L 21,235 L 20,236 Z M 44,234 L 46,233 L 49,237 L 47,238 Z M 33,234 L 30,237 L 27,238 L 25,237 L 28,234 L 31,233 Z M 49,233 L 50,232 L 51,234 L 50,235 Z M 46,233 L 47,232 L 48,233 L 47,234 Z M 29,233 L 30,232 L 31,233 L 30,234 Z M 23,232 L 24,231 L 25,232 L 24,233 Z M 22,231 L 23,230 L 24,231 L 23,232 Z M 50,229 L 51,228 L 52,230 L 51,231 Z M 46,229 L 47,228 L 48,229 L 47,230 Z M 28,228 L 29,233 L 27,234 L 25,230 Z M 36,228 L 37,227 L 39,229 L 37,230 Z M 47,225 L 49,226 L 48,229 L 45,227 Z M 42,226 L 43,225 L 45,226 L 44,227 Z M 36,226 L 39,225 L 46,228 L 40,230 Z M 104,180 L 106,181 L 105,182 L 106,187 L 103,189 L 104,188 L 105,189 L 105,191 L 103,192 L 106,193 L 104,195 L 106,197 L 104,198 L 105,199 L 104,200 L 101,197 L 100,199 L 98,198 L 99,197 L 98,195 L 101,194 L 98,192 L 101,191 L 98,188 L 99,189 L 97,191 L 99,193 L 98,195 L 99,199 L 97,201 L 98,202 L 96,205 L 97,208 L 98,203 L 99,202 L 100,203 L 99,207 L 100,212 L 98,213 L 97,211 L 95,215 L 98,214 L 101,218 L 100,219 L 98,219 L 97,218 L 98,217 L 92,218 L 91,217 L 92,213 L 90,215 L 88,214 L 91,218 L 95,219 L 90,222 L 93,220 L 95,223 L 94,224 L 97,225 L 95,227 L 98,229 L 98,233 L 98,229 L 99,228 L 100,229 L 101,240 L 102,237 L 101,229 L 102,228 L 105,231 L 105,237 L 106,238 L 105,232 L 107,230 L 110,234 L 112,231 L 114,232 L 113,231 L 114,228 L 118,231 L 120,229 L 123,231 L 125,229 L 127,232 L 127,228 L 129,225 L 130,226 L 131,225 L 133,227 L 131,229 L 130,228 L 130,230 L 132,228 L 133,229 L 132,228 L 134,226 L 140,227 L 142,225 L 145,225 L 146,226 L 145,227 L 147,225 L 148,227 L 149,225 L 151,225 L 147,224 L 142,225 L 141,223 L 139,226 L 138,225 L 137,226 L 134,225 L 133,222 L 132,225 L 129,225 L 128,224 L 129,222 L 127,222 L 124,225 L 120,224 L 110,227 L 109,224 L 107,223 L 110,221 L 108,220 L 110,219 L 107,219 L 105,217 L 109,215 L 109,213 L 107,212 L 109,210 L 109,207 L 104,204 L 107,202 L 106,201 L 108,199 L 106,198 L 109,194 L 105,191 L 108,189 L 106,187 L 105,183 L 106,182 L 108,185 L 106,181 Z M 116,229 L 117,228 L 118,229 L 117,230 Z M 105,229 L 106,228 L 107,229 L 106,230 Z M 123,228 L 124,227 L 125,228 L 124,229 Z M 111,228 L 112,227 L 113,228 L 112,229 Z M 107,228 L 108,227 L 109,228 L 108,229 Z M 104,228 L 105,227 L 106,228 L 105,229 Z M 100,228 L 101,227 L 102,228 L 101,229 Z M 118,227 L 119,226 L 121,228 L 119,229 Z M 115,227 L 116,226 L 117,227 L 116,228 Z M 110,227 L 111,226 L 112,227 L 111,228 Z M 124,226 L 126,225 L 127,227 L 126,228 Z M 120,226 L 122,225 L 124,227 L 122,228 Z M 102,225 L 103,224 L 104,225 L 103,226 Z M 100,224 L 101,223 L 102,224 L 101,225 Z M 105,223 L 106,222 L 107,223 L 106,224 Z M 95,223 L 96,222 L 99,223 L 98,224 Z M 107,221 L 108,220 L 109,221 L 108,222 Z M 104,221 L 105,220 L 106,221 L 105,222 Z M 95,219 L 96,218 L 98,219 L 97,220 Z M 101,218 L 102,217 L 106,218 L 105,219 Z M 89,216 L 90,215 L 91,216 L 90,217 Z M 100,216 L 102,212 L 104,215 L 103,214 L 105,212 L 107,212 L 109,214 L 105,217 Z M 100,212 L 101,213 L 100,216 L 98,214 Z M 100,205 L 102,204 L 104,206 L 103,208 L 104,207 L 107,211 L 104,213 L 99,211 Z M 102,203 L 103,202 L 105,203 L 104,204 Z M 100,203 L 101,202 L 102,203 L 101,204 Z M 104,202 L 105,201 L 107,202 L 106,203 Z M 105,200 L 106,199 L 107,200 L 106,201 Z M 98,200 L 101,198 L 105,201 L 102,203 L 101,201 Z M 105,195 L 106,194 L 107,195 L 106,196 Z M 97,173 L 98,174 L 96,176 L 99,175 L 100,176 L 98,178 L 100,180 L 101,179 L 100,180 L 99,179 L 100,174 L 101,173 L 104,176 L 102,173 L 100,174 Z M 98,174 L 99,173 L 100,174 L 99,175 Z M 58,164 L 65,168 L 60,164 Z M 62,155 L 60,159 L 60,162 L 60,159 L 61,158 L 62,160 L 63,158 Z M 61,157 L 62,156 L 63,158 L 62,159 Z M 113,143 L 108,147 L 111,146 Z M 65,140 L 64,141 L 63,140 L 62,143 L 63,146 L 62,147 L 64,145 L 63,142 Z M 62,143 L 63,142 L 64,143 L 63,144 Z M 185,136 L 182,137 L 181,136 L 178,137 L 173,137 L 172,136 L 170,137 L 165,137 L 164,136 L 163,137 L 131,137 L 130,138 L 126,137 L 125,138 L 157,138 L 158,137 L 161,138 L 162,137 L 185,137 Z M 60,136 L 51,138 L 50,137 L 49,138 L 44,138 L 43,137 L 38,137 L 37,138 L 29,137 L 28,138 L 27,137 L 26,138 L 0,138 L 0,139 L 2,138 L 3,139 L 4,138 L 5,139 L 7,138 L 58,138 L 59,139 L 58,145 Z M 58,137 L 59,136 L 60,137 L 59,138 Z M 103,133 L 101,133 L 103,134 L 101,136 L 102,137 L 101,139 L 99,138 L 99,135 L 98,140 L 96,139 L 95,136 L 97,142 L 96,143 L 98,143 L 99,145 L 98,143 L 99,142 L 96,141 L 99,139 L 101,140 L 104,134 Z M 66,128 L 65,129 L 66,130 L 64,132 L 67,134 L 67,133 L 66,134 L 64,132 L 67,131 Z M 91,128 L 95,129 L 93,127 Z M 100,125 L 100,126 L 101,125 L 102,126 L 101,128 L 102,128 L 103,126 Z M 84,125 L 83,127 L 84,128 L 82,131 L 84,130 L 83,127 Z M 63,115 L 63,120 L 61,122 L 62,125 L 60,129 L 60,133 L 61,133 L 61,126 L 62,125 L 67,126 L 66,122 L 68,121 L 68,120 L 66,121 L 65,125 L 62,124 Z M 128,114 L 124,119 L 125,120 L 124,122 L 115,131 L 117,133 L 114,136 L 111,136 L 107,142 L 108,140 L 109,141 L 109,143 L 107,145 L 111,139 L 112,140 L 111,142 L 115,137 L 116,138 L 118,134 L 116,132 L 118,131 L 117,130 L 119,129 L 118,128 L 119,127 L 122,129 L 120,126 L 123,123 L 124,124 L 126,123 L 125,120 L 126,118 L 128,121 L 129,118 L 127,115 Z M 124,121 L 125,120 L 126,122 L 125,123 Z M 126,117 L 128,116 L 129,118 L 127,119 Z M 130,107 L 128,110 L 131,111 L 130,115 L 132,112 L 132,109 L 131,110 Z M 69,104 L 67,106 L 65,105 L 67,108 L 64,112 L 67,108 L 66,107 Z M 127,100 L 126,105 L 128,106 L 126,105 L 128,103 Z M 124,93 L 125,95 L 124,97 L 126,97 L 126,95 L 124,94 L 126,93 Z M 120,73 L 114,79 L 114,82 L 116,81 L 116,79 Z M 114,79 L 115,78 L 116,80 L 115,81 Z M 107,66 L 102,70 L 100,67 L 97,69 L 92,68 L 95,71 L 97,70 L 99,72 L 101,70 L 103,71 L 99,75 L 97,74 L 98,75 L 96,77 L 95,76 L 96,77 L 92,82 L 89,81 L 93,77 L 91,79 L 89,77 L 89,75 L 86,74 L 88,70 L 82,71 L 80,73 L 81,72 L 83,73 L 81,75 L 78,76 L 77,75 L 78,74 L 75,77 L 76,79 L 76,84 L 75,85 L 73,84 L 73,78 L 70,83 L 70,87 L 67,95 L 66,102 L 68,99 L 70,100 L 70,102 L 70,99 L 67,98 L 69,96 L 70,97 L 68,95 L 70,94 L 69,92 L 71,90 L 70,87 L 71,86 L 72,87 L 70,85 L 72,80 L 75,87 L 73,89 L 73,92 L 75,93 L 73,95 L 75,103 L 74,105 L 75,104 L 76,105 L 75,120 L 73,124 L 73,132 L 75,134 L 75,137 L 71,138 L 72,142 L 70,148 L 70,154 L 68,158 L 69,161 L 68,163 L 65,161 L 66,159 L 66,153 L 65,152 L 66,150 L 65,152 L 63,149 L 58,148 L 59,149 L 58,151 L 60,149 L 65,152 L 65,161 L 66,163 L 65,164 L 63,162 L 69,168 L 68,173 L 69,177 L 66,189 L 67,193 L 65,196 L 65,200 L 66,202 L 67,201 L 68,202 L 68,205 L 66,207 L 64,204 L 64,214 L 63,215 L 63,217 L 65,217 L 67,219 L 64,221 L 63,220 L 65,222 L 66,221 L 74,222 L 76,225 L 77,222 L 78,223 L 82,222 L 84,224 L 87,231 L 84,238 L 83,235 L 82,235 L 83,243 L 81,249 L 82,249 L 82,245 L 84,240 L 85,241 L 85,246 L 86,249 L 87,249 L 87,247 L 85,245 L 89,241 L 90,238 L 87,239 L 85,238 L 89,235 L 90,225 L 91,224 L 92,226 L 92,224 L 90,225 L 87,222 L 89,219 L 86,223 L 85,220 L 86,219 L 86,213 L 90,212 L 90,210 L 92,209 L 92,202 L 93,201 L 92,200 L 93,196 L 92,195 L 94,194 L 95,189 L 94,187 L 96,185 L 96,182 L 95,183 L 94,182 L 95,180 L 93,179 L 93,172 L 94,171 L 93,170 L 94,169 L 93,164 L 95,163 L 94,161 L 95,160 L 95,155 L 94,154 L 93,136 L 92,136 L 92,138 L 90,140 L 91,142 L 89,144 L 92,143 L 93,146 L 92,147 L 91,146 L 88,147 L 85,146 L 84,147 L 83,145 L 83,154 L 82,155 L 82,165 L 83,167 L 81,168 L 82,170 L 80,171 L 82,172 L 81,174 L 80,173 L 83,175 L 80,177 L 76,178 L 75,177 L 74,178 L 73,177 L 74,175 L 77,174 L 79,175 L 78,173 L 75,172 L 73,173 L 70,169 L 72,168 L 75,170 L 76,163 L 74,161 L 75,160 L 77,161 L 77,158 L 74,156 L 74,153 L 77,151 L 78,155 L 79,149 L 78,152 L 75,150 L 76,149 L 75,146 L 77,145 L 74,143 L 78,139 L 76,135 L 77,134 L 82,135 L 77,133 L 78,132 L 77,130 L 81,129 L 76,128 L 76,126 L 79,125 L 76,123 L 80,120 L 82,121 L 81,122 L 82,121 L 83,122 L 86,121 L 91,121 L 92,122 L 95,120 L 93,119 L 96,118 L 95,117 L 97,116 L 94,114 L 96,109 L 95,108 L 97,106 L 99,108 L 100,107 L 98,99 L 102,94 L 103,96 L 104,90 L 105,89 L 106,91 L 107,90 L 104,87 L 106,85 L 109,87 L 110,81 L 110,83 L 108,85 L 105,85 L 104,82 L 108,76 L 111,79 L 114,74 L 112,76 L 111,75 L 108,76 L 107,75 L 109,72 L 100,84 L 98,82 L 96,82 L 93,85 L 92,83 L 94,79 L 95,80 L 96,77 L 98,79 L 97,80 L 98,79 L 101,80 L 100,79 L 99,80 L 97,78 L 100,74 L 102,76 L 101,77 L 102,78 L 101,77 L 103,76 L 101,75 L 103,74 L 101,73 L 103,71 L 106,71 L 105,70 L 108,68 Z M 89,225 L 90,226 L 89,229 L 88,228 Z M 88,223 L 89,225 L 87,226 L 86,225 Z M 83,220 L 84,219 L 85,220 L 84,221 Z M 82,219 L 83,218 L 84,219 L 83,220 Z M 79,216 L 80,215 L 84,216 L 83,217 Z M 84,215 L 85,214 L 86,215 L 85,216 Z M 68,214 L 69,213 L 71,214 L 70,215 Z M 79,213 L 81,212 L 82,214 L 81,215 Z M 79,213 L 76,216 L 73,215 L 78,212 Z M 71,213 L 73,212 L 74,214 L 73,215 Z M 82,212 L 83,211 L 84,213 L 83,214 Z M 78,212 L 79,211 L 80,212 L 79,213 Z M 80,211 L 81,210 L 82,211 L 81,212 Z M 77,211 L 78,210 L 79,211 L 78,212 Z M 74,211 L 76,210 L 78,212 L 75,213 Z M 81,210 L 82,209 L 83,210 L 82,211 Z M 84,209 L 85,208 L 87,209 L 86,210 Z M 64,209 L 66,208 L 67,211 L 66,212 Z M 88,208 L 89,207 L 90,208 L 89,209 Z M 82,208 L 83,207 L 84,208 L 83,209 Z M 80,208 L 81,207 L 82,209 L 81,210 Z M 66,208 L 67,207 L 68,208 L 67,209 Z M 85,207 L 86,206 L 87,207 L 86,208 Z M 89,206 L 90,205 L 92,206 L 91,207 Z M 87,205 L 88,204 L 89,205 L 88,206 Z M 85,205 L 86,204 L 87,205 L 86,206 Z M 80,205 L 81,204 L 82,205 L 81,206 Z M 84,204 L 85,203 L 86,204 L 85,205 Z M 81,204 L 83,203 L 84,206 L 82,207 Z M 78,203 L 79,202 L 81,203 L 80,204 Z M 81,207 L 79,211 L 78,208 L 77,211 L 75,209 L 75,205 L 73,206 L 74,208 L 70,212 L 68,211 L 68,209 L 70,208 L 69,207 L 74,202 L 76,202 L 78,204 L 78,206 Z M 77,202 L 78,201 L 79,202 L 78,203 Z M 81,202 L 82,200 L 84,201 L 82,203 Z M 79,201 L 80,200 L 81,201 L 80,202 Z M 70,201 L 71,200 L 72,201 L 71,202 Z M 78,200 L 79,199 L 80,200 L 79,201 Z M 85,199 L 86,198 L 87,200 L 86,201 Z M 80,199 L 81,198 L 83,199 L 82,200 Z M 72,199 L 73,198 L 74,199 L 73,200 Z M 70,199 L 71,198 L 72,199 L 71,200 Z M 66,199 L 67,198 L 68,199 L 67,200 Z M 77,197 L 78,196 L 80,197 L 79,198 Z M 73,197 L 74,196 L 75,197 L 74,198 Z M 80,196 L 82,195 L 83,197 L 81,198 Z M 67,195 L 68,194 L 69,195 L 68,196 Z M 74,189 L 75,190 L 74,193 L 73,192 Z M 93,189 L 94,188 L 95,189 L 94,190 Z M 90,189 L 91,188 L 92,189 L 91,190 Z M 83,188 L 84,192 L 77,196 L 75,191 L 77,189 L 78,192 L 79,191 L 80,192 L 79,189 Z M 76,188 L 77,187 L 80,188 L 79,189 Z M 86,187 L 87,186 L 88,187 L 87,188 Z M 75,187 L 76,186 L 77,187 L 76,188 Z M 85,185 L 86,186 L 85,189 L 84,188 Z M 81,185 L 82,186 L 81,189 L 79,187 Z M 77,186 L 78,185 L 80,186 L 79,187 Z M 75,182 L 77,185 L 75,186 L 76,188 L 73,190 L 72,188 Z M 76,182 L 77,181 L 78,182 L 77,183 Z M 85,180 L 86,179 L 87,180 L 86,181 Z M 78,179 L 79,178 L 80,179 L 79,180 Z M 82,177 L 84,182 L 83,185 L 80,186 L 78,181 Z M 74,178 L 75,177 L 79,180 L 76,182 L 74,180 Z M 85,177 L 86,176 L 87,177 L 86,178 Z M 80,177 L 81,176 L 82,177 L 81,178 Z M 68,175 L 69,174 L 70,176 L 69,177 Z M 82,174 L 83,173 L 84,174 L 83,175 Z M 74,174 L 75,173 L 76,174 L 75,175 Z M 72,174 L 73,173 L 74,174 L 73,175 Z M 84,173 L 87,172 L 88,176 L 87,177 Z M 91,167 L 92,166 L 93,167 L 92,168 Z M 85,166 L 88,169 L 85,172 L 83,169 Z M 71,167 L 72,166 L 73,167 L 72,168 Z M 73,166 L 75,165 L 76,168 L 75,169 Z M 90,164 L 91,163 L 93,164 L 92,165 Z M 73,164 L 74,163 L 76,164 L 75,165 Z M 87,163 L 88,162 L 89,163 L 88,164 Z M 85,163 L 86,162 L 87,163 L 86,164 Z M 89,162 L 90,161 L 91,162 L 90,163 Z M 86,162 L 87,161 L 88,162 L 87,163 Z M 84,161 L 85,163 L 83,164 L 82,163 Z M 72,162 L 73,161 L 75,162 L 74,163 Z M 70,161 L 71,162 L 70,167 L 68,165 Z M 85,161 L 86,160 L 87,161 L 86,162 Z M 84,159 L 85,158 L 86,159 L 85,160 Z M 73,159 L 74,158 L 76,159 L 75,160 Z M 86,160 L 87,157 L 89,159 L 87,161 Z M 93,156 L 94,155 L 95,156 L 94,157 Z M 82,156 L 85,155 L 87,157 L 84,158 Z M 89,155 L 90,154 L 91,156 L 90,157 Z M 89,152 L 91,151 L 92,153 L 90,154 Z M 87,149 L 89,152 L 87,157 L 86,156 L 86,150 Z M 90,148 L 91,147 L 92,148 L 91,149 Z M 70,148 L 71,147 L 72,148 L 71,149 Z M 87,146 L 88,148 L 86,149 L 86,153 L 84,154 L 83,153 L 84,150 L 83,148 L 85,146 L 86,147 Z M 91,141 L 92,140 L 93,141 L 92,142 Z M 71,139 L 72,138 L 73,139 L 72,140 Z M 75,124 L 76,128 L 74,131 L 73,130 L 73,125 Z M 82,121 L 83,120 L 85,121 L 84,122 Z M 83,119 L 84,118 L 85,119 L 84,120 Z M 77,119 L 78,118 L 82,119 L 81,120 Z M 88,118 L 89,117 L 90,118 L 89,119 Z M 82,118 L 83,117 L 84,118 L 83,119 Z M 80,117 L 81,116 L 83,117 L 82,118 Z M 77,116 L 78,115 L 79,116 L 78,117 Z M 77,114 L 78,113 L 79,114 L 78,115 Z M 98,106 L 99,105 L 100,106 L 99,107 Z M 97,104 L 98,103 L 99,104 L 98,105 Z M 99,95 L 100,94 L 101,95 L 100,96 Z M 100,94 L 101,93 L 102,94 L 101,95 Z M 101,93 L 102,92 L 103,93 L 102,94 Z M 101,85 L 102,84 L 104,85 L 103,86 Z M 87,85 L 88,84 L 89,85 L 88,86 Z M 86,84 L 87,83 L 88,84 L 87,85 Z M 79,76 L 82,77 L 81,85 L 77,86 L 76,84 L 77,79 Z M 106,76 L 107,75 L 108,76 L 107,77 Z M 97,76 L 98,75 L 99,76 L 98,77 Z M 85,74 L 87,76 L 88,74 L 89,78 L 91,79 L 89,80 L 90,82 L 89,85 L 87,82 L 87,79 L 86,79 L 87,81 L 86,82 L 86,87 L 91,82 L 93,85 L 92,90 L 90,92 L 92,90 L 93,91 L 92,90 L 93,87 L 96,85 L 95,83 L 96,82 L 98,82 L 99,83 L 98,85 L 101,87 L 99,90 L 101,87 L 103,91 L 98,95 L 100,96 L 98,98 L 95,96 L 95,97 L 96,96 L 98,98 L 97,102 L 98,103 L 94,109 L 95,110 L 92,113 L 95,116 L 87,118 L 89,119 L 88,121 L 85,120 L 84,118 L 85,117 L 80,116 L 77,111 L 76,106 L 79,99 L 79,96 L 75,92 L 76,90 L 75,88 L 77,86 L 79,87 L 79,90 L 80,88 L 81,89 L 80,87 L 83,86 L 82,85 L 84,83 L 82,82 L 84,81 L 85,77 L 84,75 Z M 100,74 L 101,73 L 102,74 L 101,75 Z M 83,72 L 84,71 L 85,72 L 84,73 Z M 106,67 L 107,66 L 108,67 L 107,68 Z M 93,41 L 91,41 L 91,45 L 89,46 L 90,48 L 87,49 L 86,47 L 86,49 L 84,51 L 83,54 L 84,53 L 87,54 L 86,52 L 88,49 L 91,50 L 94,49 L 95,50 L 91,54 L 91,57 L 89,59 L 86,59 L 84,57 L 86,59 L 84,60 L 89,61 L 88,63 L 85,64 L 90,62 L 94,57 L 96,48 L 95,49 L 94,48 L 92,50 L 90,49 L 92,46 L 95,45 L 95,43 Z M 80,32 L 81,36 L 84,34 L 85,35 L 86,40 L 89,40 L 89,38 L 91,37 L 92,33 L 88,33 L 86,31 L 85,32 L 86,31 L 88,34 L 91,35 L 89,37 L 87,37 L 84,34 L 82,35 Z M 86,38 L 87,37 L 88,38 L 87,39 Z M 80,35 L 81,34 L 82,35 L 81,36 Z M 88,28 L 95,31 L 94,34 L 98,35 L 97,32 L 93,29 Z M 91,17 L 90,18 L 91,22 L 93,20 L 90,18 Z"/>
<path fill="#473b2d" fill-rule="evenodd" d="M 164,274 L 167,275 L 170,278 L 171,277 L 169,276 L 173,275 Z M 162,274 L 159,272 L 161,275 L 158,278 L 153,279 L 161,277 Z M 160,276 L 161,275 L 162,276 L 161,277 Z M 117,273 L 122,275 L 119,272 Z M 118,273 L 119,272 L 120,273 L 119,274 Z M 110,275 L 108,274 L 109,273 L 107,274 L 106,272 L 101,275 L 103,276 L 102,277 L 99,276 L 99,278 L 103,276 L 104,277 L 106,275 L 108,276 Z M 103,274 L 104,273 L 105,274 L 104,275 Z M 79,272 L 80,275 L 83,276 L 82,277 L 84,275 L 87,275 L 84,275 L 83,272 L 82,273 Z M 81,274 L 82,273 L 83,274 L 82,275 Z M 135,274 L 132,273 L 131,275 L 129,273 L 130,272 L 129,271 L 122,273 L 124,272 L 126,275 L 130,274 L 131,275 L 130,277 L 131,277 L 130,276 L 132,274 Z M 127,272 L 128,274 L 126,275 L 125,274 Z M 128,272 L 129,271 L 130,272 L 129,273 Z M 150,268 L 146,269 L 148,271 Z M 137,268 L 140,269 L 139,271 L 140,273 L 142,271 L 141,270 L 142,269 L 141,270 L 139,268 Z M 139,271 L 140,270 L 141,272 L 140,273 Z M 181,267 L 179,268 L 182,269 L 181,270 L 182,272 L 181,273 L 177,270 L 179,272 L 176,274 L 175,273 L 177,275 L 175,277 L 176,279 L 185,278 L 183,275 L 184,272 L 181,270 L 182,269 Z M 182,278 L 183,277 L 184,278 L 183,279 Z M 176,278 L 177,277 L 178,278 L 177,279 Z M 181,277 L 182,276 L 183,277 L 182,278 Z M 177,277 L 178,276 L 180,277 L 179,278 Z M 182,276 L 183,275 L 184,276 L 183,277 Z M 179,272 L 182,274 L 181,277 L 177,274 Z M 182,272 L 183,271 L 184,272 L 183,273 Z M 162,267 L 165,269 L 168,268 L 168,267 L 166,267 L 165,269 L 164,268 L 164,266 L 167,265 Z M 95,263 L 96,267 L 101,267 L 102,268 L 103,267 L 103,265 Z M 101,266 L 102,265 L 103,267 L 102,268 Z M 96,266 L 97,264 L 99,265 L 97,267 Z M 46,263 L 42,265 L 39,264 L 39,265 L 43,269 L 41,266 L 45,263 L 46,264 Z M 30,264 L 31,266 L 35,267 L 31,265 L 32,263 L 35,263 Z M 62,261 L 55,268 L 62,273 L 63,272 L 66,273 L 58,267 Z M 58,269 L 59,268 L 60,269 L 59,270 Z M 56,268 L 57,267 L 58,268 L 57,269 Z M 89,261 L 88,260 L 86,261 L 87,262 Z M 70,257 L 71,258 L 69,260 L 67,259 L 69,261 L 71,261 Z M 142,258 L 136,256 L 132,262 L 138,260 L 141,261 Z M 135,257 L 136,256 L 141,257 L 142,259 L 138,260 Z M 130,256 L 129,255 L 125,256 L 129,257 L 125,261 L 120,260 L 117,261 L 124,262 L 130,258 Z M 27,255 L 28,257 L 27,259 L 26,258 L 27,262 L 26,261 L 28,260 Z M 152,254 L 151,255 L 149,254 L 151,255 L 149,256 L 151,258 L 149,259 L 149,261 Z M 155,252 L 154,253 L 156,255 L 153,257 L 153,259 L 156,260 L 159,259 L 159,258 L 154,253 Z M 154,259 L 155,257 L 157,258 L 155,260 Z M 184,253 L 182,254 L 179,250 L 178,251 L 177,250 L 176,252 L 171,251 L 173,253 L 172,255 L 170,253 L 165,254 L 163,252 L 164,253 L 161,257 L 162,260 L 163,259 L 164,261 L 169,259 L 171,260 L 169,262 L 169,265 L 172,269 L 174,266 L 179,265 L 180,260 L 178,259 L 179,260 L 176,264 L 174,264 L 174,266 L 171,268 L 170,266 L 172,265 L 170,263 L 172,262 L 171,261 L 172,259 L 170,258 L 167,260 L 166,256 L 167,255 L 169,256 L 170,254 L 171,255 L 174,254 L 175,255 L 174,258 L 176,259 L 174,261 L 175,262 L 174,261 L 176,259 L 175,258 L 176,257 L 183,257 Z M 171,268 L 172,267 L 173,268 L 172,269 Z M 174,257 L 175,256 L 176,257 L 175,258 Z M 162,257 L 165,256 L 166,259 L 164,260 Z M 177,256 L 178,255 L 180,256 L 179,257 Z M 175,256 L 176,255 L 177,256 L 176,257 Z M 182,254 L 183,253 L 184,254 L 183,255 Z M 176,255 L 177,253 L 181,254 L 177,256 Z M 167,254 L 168,253 L 169,254 L 168,255 Z M 116,250 L 116,253 L 118,254 L 119,253 Z M 19,247 L 20,248 L 17,251 L 21,252 L 19,249 L 20,248 L 22,249 Z M 31,248 L 29,247 L 30,246 L 29,245 L 23,246 L 23,247 L 26,246 L 27,247 L 26,248 L 27,248 L 28,245 L 29,248 Z M 44,243 L 43,245 L 44,244 L 47,247 L 45,248 L 48,248 L 46,246 L 47,245 L 46,246 L 44,244 L 45,243 Z M 81,242 L 82,243 L 81,242 L 79,243 L 77,246 L 79,251 L 77,252 L 74,248 L 75,253 L 71,254 L 74,255 L 73,257 L 76,259 L 74,257 L 75,252 L 76,251 L 78,252 L 80,249 L 82,250 L 77,246 L 79,243 L 81,246 L 80,244 Z M 60,240 L 62,242 L 61,243 L 62,244 L 63,241 Z M 51,242 L 51,240 L 49,242 L 46,241 Z M 37,239 L 36,240 L 37,241 L 35,243 L 37,245 L 36,247 L 37,247 L 38,244 L 36,242 L 37,241 L 40,242 Z M 69,236 L 66,239 L 68,239 L 69,240 L 68,241 L 70,240 L 68,239 L 70,238 L 68,237 Z M 42,236 L 38,237 L 39,238 L 42,237 Z M 30,236 L 28,235 L 26,237 Z M 60,233 L 56,237 L 52,237 L 49,239 L 52,237 L 53,239 L 54,237 L 55,238 L 57,237 L 58,239 L 57,236 Z M 45,234 L 48,237 L 46,234 L 47,233 Z M 102,230 L 103,232 L 104,231 Z M 131,226 L 132,229 L 131,230 L 133,228 L 135,229 L 134,227 L 133,228 Z M 131,228 L 132,227 L 133,228 L 132,229 Z M 77,223 L 78,226 L 83,229 L 83,231 L 81,233 L 82,234 L 84,227 L 82,228 L 81,224 L 82,223 L 83,224 L 81,223 L 81,226 L 79,227 L 78,226 L 79,223 L 78,225 Z M 129,224 L 132,224 L 131,223 L 133,221 L 134,224 L 137,225 L 138,224 L 139,225 L 141,222 L 142,224 L 147,223 L 152,225 L 149,226 L 148,228 L 147,226 L 146,227 L 142,226 L 139,228 L 142,228 L 144,230 L 147,229 L 148,230 L 147,232 L 149,235 L 151,235 L 155,233 L 158,234 L 163,231 L 165,233 L 164,229 L 165,227 L 164,228 L 161,225 L 162,222 L 163,224 L 169,223 L 170,228 L 171,226 L 174,226 L 172,226 L 170,224 L 172,223 L 171,222 L 173,221 L 174,223 L 175,221 L 182,229 L 184,227 L 183,226 L 185,223 L 182,220 L 181,221 L 180,220 L 172,220 L 171,221 L 170,220 L 138,220 L 137,221 L 136,220 L 131,223 L 130,222 Z M 149,234 L 150,233 L 151,234 L 150,235 Z M 160,232 L 161,231 L 162,232 L 161,233 Z M 157,232 L 158,231 L 159,232 L 158,233 Z M 152,231 L 153,230 L 155,233 L 154,234 Z M 150,231 L 151,230 L 152,231 L 151,232 Z M 181,228 L 182,227 L 183,228 L 182,229 Z M 151,228 L 152,227 L 153,228 L 152,229 Z M 182,227 L 183,226 L 184,227 L 183,228 Z M 144,227 L 145,226 L 146,227 L 145,228 Z M 157,225 L 158,224 L 159,225 L 158,226 Z M 182,223 L 184,225 L 181,228 L 180,225 Z M 178,224 L 179,223 L 180,225 L 179,226 Z M 183,223 L 184,222 L 185,223 L 184,224 Z M 154,222 L 156,225 L 155,227 L 152,224 Z M 150,223 L 151,222 L 153,223 L 152,224 Z M 144,223 L 145,222 L 146,223 L 145,224 Z M 182,222 L 183,221 L 184,222 L 183,223 Z M 162,222 L 163,221 L 164,222 L 163,223 Z M 160,221 L 161,222 L 160,225 L 159,224 Z M 157,221 L 158,222 L 157,225 L 156,224 Z M 146,222 L 147,221 L 148,222 L 147,223 Z M 136,222 L 138,221 L 139,223 L 138,224 Z M 134,222 L 135,221 L 136,222 L 135,223 Z M 181,221 L 182,220 L 183,221 L 182,222 Z M 173,221 L 174,220 L 175,221 L 174,222 Z M 164,221 L 165,220 L 166,221 L 165,222 Z M 143,222 L 144,220 L 146,221 L 144,223 Z M 0,256 L 2,256 L 2,252 L 4,250 L 5,252 L 6,251 L 1,247 L 4,245 L 6,247 L 5,248 L 6,247 L 8,248 L 7,245 L 8,244 L 10,245 L 9,244 L 13,242 L 18,233 L 20,235 L 19,234 L 23,231 L 24,232 L 23,231 L 25,229 L 27,233 L 29,232 L 33,235 L 29,232 L 34,230 L 35,227 L 32,227 L 31,226 L 32,224 L 35,225 L 36,222 L 39,224 L 41,223 L 45,225 L 42,227 L 37,226 L 38,227 L 37,229 L 38,229 L 37,228 L 38,227 L 40,229 L 47,227 L 48,228 L 47,229 L 48,226 L 45,228 L 42,227 L 46,224 L 55,224 L 60,221 L 59,220 L 57,222 L 55,220 L 56,221 L 54,223 L 53,220 L 12,220 L 11,221 L 7,220 L 2,225 L 3,226 L 0,228 L 1,232 L 0,235 L 1,234 L 3,236 L 0,240 L 2,241 L 6,239 L 8,241 L 5,244 L 4,243 L 2,245 L 0,243 L 0,248 L 1,249 L 0,250 L 1,249 L 2,250 Z M 5,246 L 6,245 L 7,246 L 6,247 Z M 2,245 L 3,244 L 4,245 L 3,246 Z M 3,244 L 4,243 L 5,244 L 4,245 Z M 7,243 L 8,242 L 10,243 L 9,244 Z M 12,240 L 13,242 L 11,243 L 10,242 Z M 8,241 L 9,240 L 11,241 L 10,242 Z M 7,240 L 8,239 L 9,240 L 8,241 Z M 10,239 L 13,238 L 14,240 L 13,241 Z M 4,238 L 5,237 L 6,238 L 5,239 Z M 2,238 L 3,237 L 4,238 L 3,239 Z M 5,237 L 6,236 L 7,237 L 6,238 Z M 12,236 L 15,235 L 16,237 L 13,238 Z M 9,236 L 10,235 L 11,237 L 10,238 Z M 5,235 L 6,234 L 7,235 L 6,236 Z M 15,234 L 16,233 L 17,234 L 16,235 Z M 27,231 L 28,230 L 29,232 L 28,233 Z M 19,232 L 20,230 L 23,231 L 20,233 Z M 16,230 L 19,232 L 17,234 L 14,232 Z M 11,230 L 13,232 L 11,233 L 14,234 L 13,235 L 8,234 Z M 22,230 L 23,229 L 24,230 L 23,231 Z M 18,230 L 19,229 L 20,230 L 19,231 Z M 13,230 L 14,229 L 15,230 L 14,231 Z M 16,229 L 17,228 L 19,229 L 18,230 Z M 14,229 L 15,228 L 16,229 L 15,230 Z M 28,229 L 30,227 L 33,230 L 29,231 Z M 1,228 L 2,227 L 3,228 L 2,229 Z M 2,227 L 3,226 L 5,227 L 4,228 Z M 23,226 L 24,225 L 25,226 L 24,227 Z M 6,225 L 7,224 L 8,225 L 7,226 Z M 2,225 L 3,224 L 4,225 L 3,226 Z M 7,224 L 8,223 L 9,224 L 8,225 Z M 3,224 L 4,223 L 5,224 L 4,225 Z M 54,223 L 55,222 L 56,223 L 55,224 Z M 41,223 L 42,222 L 43,223 L 42,224 Z M 31,223 L 32,222 L 33,223 L 32,224 Z M 5,223 L 6,222 L 7,223 L 6,224 Z M 45,223 L 47,221 L 49,221 L 51,223 L 50,224 Z M 42,222 L 43,221 L 44,222 L 43,223 Z M 39,222 L 40,221 L 41,222 L 40,223 Z M 30,221 L 31,222 L 30,225 L 29,224 Z M 27,221 L 30,226 L 26,230 L 25,228 L 27,225 L 25,226 L 24,223 L 25,222 L 26,223 Z M 14,222 L 15,221 L 17,222 L 16,223 Z M 24,225 L 23,226 L 24,228 L 22,230 L 21,228 L 20,229 L 15,228 L 13,230 L 12,229 L 8,230 L 9,231 L 6,234 L 5,232 L 3,236 L 1,234 L 12,221 L 15,223 L 20,222 Z M 35,221 L 36,220 L 37,221 L 36,222 Z M 24,221 L 25,220 L 27,221 L 26,222 Z M 18,221 L 19,220 L 20,222 L 19,223 Z M 12,221 L 13,220 L 14,221 L 13,222 Z M 93,219 L 91,220 L 90,219 L 88,222 L 89,223 L 87,225 L 89,223 L 91,225 L 89,222 Z M 103,215 L 107,218 L 111,218 L 107,218 L 105,216 L 106,215 L 105,213 Z M 103,215 L 104,214 L 105,215 L 104,216 Z M 87,213 L 87,218 L 88,219 L 86,222 L 90,216 L 89,217 L 87,215 Z M 87,217 L 88,216 L 89,217 L 88,218 Z M 71,209 L 69,209 L 69,211 Z M 111,208 L 108,212 L 110,212 Z M 123,203 L 122,204 L 118,203 L 121,208 L 119,209 L 120,210 L 119,211 L 122,209 Z M 120,209 L 121,208 L 122,209 L 121,210 Z M 119,204 L 120,203 L 121,204 L 120,205 Z M 65,201 L 66,206 L 67,202 L 66,203 Z M 106,200 L 107,201 L 105,202 L 107,203 L 105,204 L 107,204 L 108,206 L 111,206 L 109,204 L 109,201 Z M 106,202 L 107,201 L 108,202 L 107,203 Z M 93,197 L 94,201 L 93,206 L 96,208 L 94,210 L 93,209 L 91,210 L 92,211 L 89,213 L 90,214 L 93,209 L 95,211 L 95,214 L 94,215 L 93,214 L 95,216 L 94,217 L 95,217 L 94,215 L 95,214 L 95,209 L 96,208 L 97,210 L 94,202 L 95,201 L 97,202 L 96,201 L 97,200 Z M 93,204 L 94,203 L 96,206 L 94,207 Z M 93,199 L 94,198 L 95,199 L 94,200 Z M 155,193 L 154,195 L 159,197 L 158,198 L 159,199 L 160,198 L 161,200 L 161,198 Z M 105,175 L 105,177 L 107,178 L 106,180 L 108,182 L 106,184 L 108,183 L 109,184 L 107,186 L 109,189 L 106,191 L 108,192 L 110,187 L 107,181 L 108,176 Z M 106,177 L 107,176 L 108,177 L 107,178 Z M 96,172 L 95,176 L 96,178 L 94,179 L 97,179 L 99,181 L 98,182 L 95,181 L 95,182 L 96,181 L 97,182 L 97,185 L 95,187 L 96,189 L 95,190 L 94,189 L 96,191 L 95,194 L 93,195 L 95,195 L 96,192 L 97,195 L 98,194 L 99,196 L 98,194 L 99,192 L 98,193 L 96,191 L 98,189 L 97,188 L 98,187 L 97,188 L 95,187 L 98,185 L 97,183 L 99,182 L 97,178 L 99,176 L 97,178 L 95,176 Z M 96,189 L 97,188 L 98,189 L 97,190 Z M 135,170 L 134,174 L 136,174 Z M 119,165 L 119,167 L 120,167 L 120,165 Z M 98,164 L 98,169 L 99,170 L 104,170 L 99,166 L 100,165 L 104,167 Z M 99,169 L 100,168 L 101,169 L 100,170 Z M 98,168 L 99,167 L 100,168 L 99,169 Z M 98,165 L 99,164 L 100,165 L 99,166 Z M 112,150 L 116,147 L 117,149 L 115,152 L 118,156 L 121,155 L 121,152 L 117,149 L 118,148 L 115,147 Z M 117,151 L 118,150 L 119,152 L 118,153 Z M 116,150 L 117,149 L 118,150 L 117,151 Z M 95,135 L 96,136 L 95,138 L 96,136 L 97,139 L 99,140 L 96,142 L 95,140 L 96,142 L 97,141 L 100,142 L 98,144 L 96,144 L 98,162 L 104,161 L 102,159 L 105,156 L 104,155 L 105,154 L 100,153 L 105,151 L 109,152 L 109,151 L 107,151 L 105,148 L 103,149 L 101,147 L 98,136 Z M 99,159 L 100,158 L 102,159 L 101,160 Z M 97,159 L 98,158 L 99,159 L 98,160 Z M 97,150 L 98,149 L 100,152 L 98,153 Z M 103,149 L 104,148 L 105,149 L 104,150 Z M 99,146 L 100,148 L 98,149 L 97,148 Z M 96,147 L 97,146 L 98,147 L 97,148 Z M 98,144 L 99,143 L 100,145 L 99,146 Z M 64,134 L 65,135 L 64,140 L 66,138 L 64,137 L 66,135 Z M 72,133 L 71,137 L 72,136 L 74,137 L 74,134 Z M 104,125 L 101,126 L 101,127 L 102,125 L 104,126 L 101,130 L 105,128 Z M 111,124 L 112,127 L 113,127 L 113,124 Z M 69,121 L 67,123 L 68,122 L 70,123 Z M 62,117 L 57,117 L 50,119 L 49,118 L 40,118 L 39,119 L 38,118 L 35,119 L 34,118 L 26,118 L 25,119 L 24,118 L 22,119 L 21,118 L 14,118 L 13,119 L 9,118 L 6,119 L 5,118 L 0,119 L 0,137 L 26,137 L 27,136 L 28,137 L 29,136 L 31,137 L 34,136 L 36,137 L 38,136 L 43,136 L 44,137 L 58,136 L 59,137 L 58,136 L 60,135 L 59,133 L 60,122 L 62,120 Z M 185,116 L 184,117 L 170,117 L 169,118 L 168,117 L 142,118 L 140,122 L 127,135 L 125,136 L 124,133 L 123,133 L 122,136 L 124,137 L 124,139 L 126,136 L 129,137 L 131,136 L 163,136 L 164,135 L 165,136 L 170,136 L 171,135 L 173,136 L 181,135 L 182,136 L 185,135 Z M 123,136 L 124,135 L 125,136 L 124,137 Z M 122,134 L 123,133 L 124,134 L 123,135 Z M 128,113 L 125,116 L 123,115 L 121,118 L 121,124 L 122,125 L 121,123 L 123,122 L 124,120 L 123,119 Z M 113,113 L 110,114 L 112,116 L 111,119 L 113,118 L 114,114 Z M 69,112 L 67,113 L 69,115 L 67,116 L 69,117 L 66,118 L 67,119 L 70,118 L 71,115 L 68,114 Z M 68,116 L 69,115 L 70,116 L 69,117 Z M 129,106 L 133,109 L 132,113 L 134,113 L 135,112 L 133,111 L 133,108 L 135,107 L 132,108 L 131,107 L 132,106 Z M 112,106 L 113,108 L 111,110 L 114,111 L 115,106 Z M 100,103 L 100,105 L 96,108 L 97,109 L 95,113 L 98,110 L 99,111 L 98,107 L 100,105 Z M 125,98 L 126,102 L 127,99 L 129,101 L 129,103 L 131,103 L 128,100 L 129,99 Z M 112,97 L 111,98 L 111,100 L 113,102 L 112,103 L 113,102 L 115,103 L 115,100 L 114,101 L 112,99 Z M 102,95 L 99,100 L 100,99 L 101,100 L 100,99 L 101,97 L 103,99 L 103,101 Z M 109,88 L 107,89 L 108,90 L 106,92 L 105,90 L 104,95 L 105,93 L 106,95 L 107,94 L 105,93 L 109,90 Z M 107,89 L 108,88 L 109,89 L 108,90 Z M 117,82 L 121,88 L 122,87 L 123,88 L 122,90 L 123,89 L 124,90 L 123,92 L 123,95 L 124,95 L 123,92 L 126,90 L 123,89 L 124,84 L 122,84 L 120,81 Z M 122,87 L 123,86 L 124,87 L 123,88 Z M 119,85 L 122,84 L 123,86 L 120,87 Z M 120,84 L 121,83 L 122,84 L 121,85 Z M 120,81 L 121,83 L 119,85 L 118,83 Z M 82,73 L 80,72 L 78,75 L 77,74 L 79,75 Z M 79,73 L 80,72 L 81,73 L 80,74 Z M 117,68 L 115,68 L 116,69 L 111,72 L 110,70 L 109,71 L 111,72 L 108,75 L 107,74 L 108,75 L 107,76 L 111,74 L 112,75 L 117,70 Z M 84,35 L 83,39 L 80,36 L 83,41 L 85,40 Z M 83,39 L 84,38 L 85,39 L 84,40 Z M 91,28 L 93,28 L 99,34 L 98,36 L 93,34 L 92,37 L 90,38 L 90,40 L 92,39 L 96,43 L 96,45 L 92,47 L 91,49 L 94,46 L 95,48 L 96,43 L 93,40 L 96,36 L 98,36 L 100,38 L 98,39 L 100,40 L 101,39 L 103,42 L 104,42 L 105,39 L 113,46 L 107,39 L 106,40 L 104,38 L 105,37 L 99,31 L 103,28 L 104,30 L 103,27 L 101,27 L 100,29 L 98,28 L 99,27 L 96,29 Z M 102,41 L 103,40 L 104,41 L 103,42 Z M 106,40 L 107,39 L 108,40 L 107,41 Z M 101,36 L 102,35 L 103,36 L 102,37 Z M 100,34 L 101,33 L 102,34 L 101,35 Z"/>
<path fill="#381e12" fill-rule="evenodd" d="M 67,274 L 69,276 L 77,275 L 84,277 L 79,275 L 73,276 L 71,274 Z M 69,266 L 74,271 L 73,270 L 76,267 L 73,267 L 72,265 Z M 42,266 L 46,272 L 48,272 L 45,271 L 48,270 L 43,268 L 44,266 L 50,266 L 52,268 L 51,269 L 52,269 L 52,266 L 51,267 L 47,265 L 48,264 L 46,265 L 45,264 Z M 177,261 L 176,260 L 171,264 L 173,265 Z M 174,262 L 175,261 L 176,262 L 175,263 Z M 132,257 L 130,255 L 131,258 L 124,263 L 121,264 L 119,263 L 120,262 L 117,264 L 116,263 L 121,265 L 118,267 L 121,266 L 124,263 L 129,262 L 128,261 Z M 70,255 L 69,256 L 68,255 L 66,257 L 64,256 L 62,259 L 60,259 L 64,258 L 66,259 Z M 65,247 L 64,251 L 66,252 L 68,249 L 66,249 Z M 155,245 L 154,247 L 156,247 Z M 58,236 L 59,239 L 58,237 L 60,235 L 63,236 L 62,239 L 67,237 L 65,233 L 62,234 L 61,233 Z M 65,236 L 66,235 L 67,236 L 66,237 Z M 64,233 L 65,234 L 64,237 L 63,236 Z M 16,231 L 15,232 L 17,233 L 16,234 L 17,233 L 18,234 L 17,236 L 18,232 Z M 13,234 L 10,233 L 12,232 L 11,231 L 9,234 Z M 82,224 L 82,227 L 83,227 Z M 73,224 L 74,226 L 72,227 L 73,233 L 71,238 L 69,239 L 73,239 L 74,240 L 73,241 L 77,245 L 79,242 L 81,244 L 82,238 L 80,233 L 82,231 L 82,229 L 79,232 L 78,231 L 79,228 L 77,226 L 78,224 L 76,227 Z M 77,242 L 78,241 L 79,242 L 78,243 Z M 80,241 L 81,240 L 82,242 L 81,243 Z M 75,239 L 76,241 L 74,242 L 73,241 Z M 75,239 L 76,238 L 77,239 L 76,240 Z M 73,239 L 74,238 L 75,239 L 74,240 Z M 78,236 L 81,238 L 79,241 L 76,238 Z M 73,236 L 74,235 L 75,236 L 74,237 Z M 75,235 L 76,234 L 77,235 L 76,236 Z M 27,222 L 25,221 L 27,223 L 24,226 L 19,221 L 20,223 L 19,224 L 15,224 L 14,223 L 16,222 L 13,223 L 12,222 L 13,221 L 9,225 L 8,224 L 7,225 L 8,227 L 0,236 L 0,238 L 5,231 L 6,233 L 8,231 L 7,230 L 11,228 L 15,229 L 14,228 L 15,227 L 20,228 L 21,227 L 22,229 L 23,225 L 24,226 L 26,224 L 28,224 Z M 1,235 L 2,234 L 3,235 L 2,236 Z M 14,226 L 15,225 L 20,225 L 21,226 L 20,227 L 15,227 Z M 7,225 L 8,224 L 9,225 L 8,226 Z M 185,224 L 181,220 L 185,225 L 184,226 L 182,224 L 180,228 L 178,226 L 179,224 L 178,226 L 174,221 L 171,224 L 175,226 L 171,227 L 170,229 L 168,225 L 169,224 L 164,225 L 162,224 L 166,230 L 166,233 L 164,234 L 163,232 L 162,233 L 161,232 L 162,233 L 158,235 L 155,234 L 151,236 L 149,236 L 142,229 L 139,229 L 137,227 L 136,228 L 135,227 L 131,231 L 129,229 L 128,230 L 129,231 L 127,233 L 125,231 L 122,232 L 120,230 L 121,231 L 118,232 L 115,230 L 115,233 L 114,234 L 112,232 L 113,233 L 110,235 L 107,232 L 106,233 L 107,235 L 106,240 L 104,237 L 104,232 L 103,233 L 104,237 L 101,241 L 100,240 L 100,234 L 97,233 L 97,229 L 94,227 L 95,226 L 94,225 L 95,226 L 94,227 L 91,226 L 90,235 L 86,238 L 87,237 L 91,238 L 86,246 L 87,245 L 88,246 L 88,249 L 86,250 L 83,246 L 84,250 L 83,251 L 80,250 L 75,256 L 78,253 L 81,254 L 84,250 L 90,254 L 91,253 L 93,254 L 92,258 L 93,259 L 91,262 L 92,263 L 92,268 L 91,269 L 92,270 L 86,274 L 91,274 L 90,273 L 92,271 L 91,269 L 92,268 L 103,269 L 103,268 L 102,269 L 101,268 L 96,268 L 94,266 L 95,262 L 98,262 L 100,264 L 102,264 L 99,263 L 100,261 L 99,262 L 94,259 L 96,258 L 97,255 L 96,254 L 98,252 L 106,252 L 104,251 L 106,247 L 110,244 L 113,246 L 111,249 L 108,248 L 108,251 L 111,251 L 110,250 L 112,248 L 113,250 L 116,249 L 120,253 L 117,255 L 115,252 L 110,258 L 111,259 L 113,255 L 118,256 L 121,255 L 120,251 L 122,249 L 120,250 L 119,248 L 118,249 L 117,248 L 118,243 L 120,246 L 125,245 L 128,248 L 127,249 L 129,249 L 130,250 L 129,251 L 131,252 L 134,248 L 135,251 L 133,253 L 135,252 L 136,253 L 135,256 L 136,255 L 137,256 L 136,255 L 138,253 L 139,255 L 142,253 L 143,254 L 142,256 L 143,260 L 141,262 L 140,261 L 134,262 L 135,263 L 143,261 L 144,262 L 143,264 L 145,265 L 144,267 L 141,267 L 140,266 L 141,264 L 139,267 L 130,268 L 131,269 L 130,270 L 127,268 L 129,270 L 128,271 L 119,271 L 128,271 L 129,270 L 132,271 L 137,269 L 138,270 L 140,268 L 142,270 L 141,269 L 142,268 L 147,268 L 145,267 L 149,263 L 155,261 L 159,262 L 158,265 L 156,266 L 159,265 L 160,266 L 164,265 L 167,266 L 164,265 L 168,264 L 168,262 L 170,261 L 167,259 L 169,260 L 166,262 L 164,262 L 163,260 L 162,261 L 161,258 L 156,261 L 154,260 L 156,258 L 149,262 L 148,261 L 148,259 L 150,258 L 148,256 L 151,254 L 152,256 L 155,255 L 153,253 L 156,250 L 149,247 L 147,249 L 145,246 L 145,243 L 146,242 L 149,243 L 152,240 L 153,241 L 152,244 L 153,244 L 157,240 L 159,242 L 159,244 L 162,245 L 164,244 L 161,243 L 164,240 L 167,244 L 170,245 L 167,247 L 166,246 L 165,248 L 161,248 L 160,249 L 162,251 L 164,248 L 165,253 L 170,252 L 172,254 L 170,251 L 171,250 L 176,251 L 177,249 L 178,250 L 179,249 L 185,257 L 185,250 L 184,249 L 185,248 L 184,244 L 185,241 L 181,242 L 184,244 L 183,245 L 177,246 L 176,245 L 177,244 L 176,245 L 169,236 L 170,234 L 172,237 L 173,236 L 184,237 L 185,236 L 184,234 L 185,233 Z M 131,269 L 132,268 L 135,269 L 134,270 Z M 136,268 L 137,267 L 140,268 L 139,269 Z M 139,267 L 140,266 L 141,267 L 140,268 Z M 144,264 L 145,263 L 146,264 L 145,265 Z M 159,261 L 160,260 L 161,261 L 160,262 Z M 142,257 L 143,255 L 145,256 L 143,258 Z M 94,255 L 95,254 L 97,255 L 96,256 Z M 151,254 L 152,253 L 153,254 L 152,255 Z M 148,254 L 149,253 L 151,254 L 150,255 Z M 182,253 L 184,252 L 185,254 L 184,255 Z M 138,253 L 139,252 L 140,253 L 139,254 Z M 151,252 L 152,251 L 153,252 L 152,253 Z M 79,252 L 81,251 L 82,253 L 80,254 Z M 153,251 L 154,250 L 155,251 L 154,252 Z M 179,249 L 180,248 L 181,249 L 180,250 Z M 101,248 L 102,251 L 100,252 L 99,250 Z M 178,248 L 179,247 L 180,248 L 179,249 Z M 88,248 L 89,247 L 90,249 L 89,250 Z M 179,247 L 181,246 L 182,248 L 181,249 Z M 177,247 L 178,246 L 179,247 L 178,248 Z M 170,246 L 171,247 L 169,252 L 166,251 L 165,248 L 166,247 L 168,248 Z M 131,247 L 132,246 L 133,247 L 132,248 Z M 128,247 L 129,246 L 130,248 L 129,249 Z M 115,246 L 116,247 L 115,250 L 114,249 Z M 112,247 L 113,246 L 114,247 L 113,248 Z M 132,246 L 133,244 L 135,245 L 133,247 Z M 102,244 L 103,245 L 102,249 L 101,248 Z M 87,245 L 88,244 L 89,245 L 88,246 Z M 130,243 L 131,244 L 130,247 L 129,246 Z M 116,243 L 117,244 L 116,247 L 115,246 Z M 114,243 L 115,244 L 114,247 L 113,246 Z M 99,244 L 100,243 L 101,244 L 100,245 Z M 183,243 L 184,242 L 185,243 L 184,244 Z M 145,243 L 144,246 L 146,247 L 145,248 L 146,249 L 144,251 L 141,248 L 139,250 L 137,249 L 139,246 L 141,246 L 140,245 L 135,249 L 134,248 L 138,243 L 142,244 L 141,243 L 142,242 Z M 116,243 L 117,242 L 118,243 L 117,244 Z M 114,243 L 115,242 L 116,243 L 115,244 Z M 94,243 L 95,242 L 96,243 L 95,244 Z M 88,243 L 89,242 L 90,243 L 89,244 Z M 182,242 L 183,241 L 184,242 L 183,243 Z M 170,244 L 170,242 L 172,241 L 173,243 L 171,245 Z M 119,242 L 120,241 L 121,242 L 120,243 Z M 109,242 L 110,241 L 111,242 L 110,243 Z M 166,242 L 167,240 L 170,241 L 168,243 Z M 140,241 L 141,240 L 142,241 L 141,242 Z M 145,240 L 146,239 L 147,240 L 146,241 Z M 137,240 L 138,239 L 139,240 L 138,241 Z M 134,240 L 135,239 L 136,241 L 135,242 Z M 119,240 L 120,239 L 121,240 L 120,241 Z M 106,240 L 107,239 L 108,241 L 107,242 Z M 149,238 L 150,241 L 147,243 L 146,241 Z M 121,239 L 122,238 L 123,239 L 122,240 Z M 108,239 L 109,238 L 110,240 L 109,241 Z M 94,238 L 95,239 L 94,242 L 93,241 Z M 149,238 L 150,237 L 151,238 L 150,239 Z M 103,238 L 104,237 L 105,239 L 104,240 Z M 92,237 L 93,238 L 92,241 L 91,240 Z M 160,237 L 161,236 L 162,237 L 161,238 Z M 145,236 L 147,235 L 148,237 L 146,238 Z M 110,236 L 111,235 L 112,236 L 111,237 Z M 171,235 L 172,234 L 174,235 L 173,236 Z M 122,235 L 123,234 L 124,235 L 123,236 Z M 168,234 L 169,233 L 170,234 L 169,235 Z M 139,235 L 140,233 L 142,234 L 140,236 Z M 108,233 L 109,234 L 108,237 L 107,236 Z M 145,232 L 146,234 L 144,236 L 143,234 Z M 134,233 L 135,232 L 136,234 L 135,235 Z M 130,232 L 132,241 L 131,242 L 129,241 L 128,244 L 129,246 L 127,247 L 126,246 L 125,236 L 127,233 Z M 139,231 L 143,230 L 144,232 L 141,233 Z M 132,230 L 134,235 L 133,236 L 131,235 Z M 175,230 L 176,229 L 179,230 L 178,231 Z M 172,230 L 173,229 L 174,230 L 173,231 Z M 169,230 L 170,229 L 171,230 L 170,231 Z M 181,229 L 182,228 L 183,229 L 182,230 Z M 174,229 L 175,228 L 176,229 L 175,230 Z M 134,229 L 135,228 L 136,229 L 135,230 Z M 182,228 L 183,227 L 184,228 L 183,229 Z M 180,228 L 181,227 L 182,228 L 181,229 Z M 91,228 L 92,227 L 93,228 L 92,229 Z M 183,227 L 184,226 L 185,227 L 184,228 Z M 164,227 L 165,226 L 166,227 L 165,228 Z M 181,227 L 182,225 L 184,226 L 182,228 Z M 173,222 L 174,221 L 175,223 L 174,224 Z M 6,220 L 0,225 L 0,227 L 2,228 L 4,227 L 2,226 L 4,224 L 3,223 Z M 1,227 L 2,226 L 3,227 L 2,228 Z M 1,225 L 2,224 L 3,225 L 2,226 Z M 2,224 L 3,223 L 4,224 L 3,225 Z M 95,202 L 93,207 L 94,208 L 93,217 L 94,216 L 93,215 L 94,214 L 93,210 L 95,208 L 96,209 L 93,207 L 95,206 L 94,205 L 96,203 Z M 96,193 L 96,195 L 94,196 L 98,199 L 96,197 L 97,196 Z M 129,177 L 129,180 L 128,181 L 126,180 L 128,190 L 127,191 L 129,195 L 127,197 L 128,198 L 127,199 L 130,200 L 128,201 L 129,202 L 128,203 L 129,203 L 130,200 L 129,197 L 130,196 L 132,198 L 131,205 L 129,208 L 133,211 L 131,215 L 132,216 L 131,220 L 128,221 L 130,221 L 132,223 L 131,222 L 133,220 L 135,220 L 135,215 L 134,214 L 134,208 L 133,209 L 131,208 L 133,205 L 133,202 L 132,201 L 131,190 L 129,187 L 130,186 Z M 132,217 L 133,216 L 134,217 L 133,218 Z M 129,195 L 130,194 L 131,195 L 130,196 Z M 127,191 L 128,190 L 129,191 L 128,192 Z M 128,185 L 129,184 L 130,186 L 129,187 Z M 127,184 L 128,183 L 129,184 L 128,185 Z M 126,181 L 127,180 L 128,181 L 127,182 Z M 128,172 L 127,174 L 126,173 L 127,176 Z M 61,161 L 62,164 L 64,165 Z M 101,153 L 106,154 L 105,155 L 106,156 L 103,159 L 105,161 L 100,162 L 104,163 L 100,164 L 102,165 L 100,166 L 104,168 L 105,170 L 111,170 L 123,167 L 120,162 L 117,163 L 116,162 L 117,160 L 119,160 L 115,156 L 114,157 L 112,156 L 113,153 L 111,154 L 108,152 Z M 110,168 L 111,167 L 112,168 L 111,169 Z M 107,168 L 108,167 L 109,168 L 108,169 Z M 109,167 L 110,166 L 111,167 L 110,168 Z M 103,167 L 104,166 L 105,167 L 104,168 Z M 115,166 L 116,165 L 117,166 L 116,167 Z M 101,166 L 102,165 L 104,166 L 103,167 Z M 118,165 L 120,164 L 121,167 L 119,168 Z M 114,164 L 115,163 L 117,164 L 116,165 Z M 117,163 L 118,162 L 120,163 L 119,164 Z M 105,162 L 106,161 L 107,162 L 106,163 Z M 113,161 L 114,160 L 115,161 L 114,162 Z M 110,161 L 111,160 L 112,161 L 111,162 Z M 114,160 L 115,159 L 116,160 L 115,161 Z M 115,159 L 116,158 L 117,159 L 116,160 Z M 111,159 L 112,158 L 113,159 L 112,160 Z M 67,145 L 65,143 L 65,147 L 60,148 L 66,149 L 65,148 Z M 123,140 L 124,146 L 126,147 L 124,145 L 125,143 L 124,140 Z M 77,126 L 77,128 L 78,128 L 78,126 Z M 74,120 L 73,121 L 68,119 L 71,123 L 69,124 L 67,122 L 68,123 L 67,124 L 69,125 L 68,128 L 65,126 L 68,129 L 68,134 L 66,141 L 67,139 L 69,140 L 70,137 L 69,138 L 68,137 L 69,133 L 68,130 L 70,128 L 72,128 L 71,126 Z M 67,138 L 68,137 L 69,139 L 68,140 Z M 71,121 L 72,120 L 73,121 L 72,122 Z M 62,114 L 56,116 L 24,116 L 23,117 L 20,116 L 19,117 L 17,116 L 15,117 L 12,116 L 11,117 L 10,116 L 5,117 L 3,116 L 0,117 L 0,118 L 5,117 L 6,118 L 7,117 L 8,118 L 9,117 L 10,118 L 14,117 L 21,117 L 22,118 L 23,117 L 25,118 L 26,117 L 34,117 L 35,118 L 36,117 L 39,118 L 40,117 L 49,117 L 50,118 L 51,117 L 62,116 Z M 73,85 L 71,91 L 71,102 L 67,107 L 68,106 L 70,107 L 72,110 L 70,112 L 72,113 L 69,114 L 74,116 L 71,117 L 71,118 L 74,117 L 74,113 L 72,110 L 73,108 L 73,99 L 72,101 L 71,100 L 72,96 L 71,91 L 73,88 Z M 71,112 L 72,111 L 73,112 L 72,113 Z M 69,106 L 70,105 L 71,106 L 70,107 Z M 70,104 L 71,103 L 72,105 L 71,106 Z M 76,74 L 74,75 L 74,81 L 74,77 Z M 120,69 L 113,76 L 110,84 L 110,90 L 105,94 L 104,101 L 103,102 L 102,99 L 101,101 L 100,100 L 101,109 L 96,115 L 97,114 L 100,115 L 97,117 L 98,116 L 99,117 L 98,119 L 95,119 L 100,120 L 99,121 L 94,121 L 92,123 L 91,122 L 86,122 L 85,123 L 79,122 L 77,123 L 78,124 L 81,123 L 85,125 L 85,130 L 83,132 L 78,130 L 79,132 L 78,133 L 81,133 L 83,135 L 78,156 L 77,168 L 75,171 L 71,169 L 76,171 L 81,142 L 83,141 L 82,137 L 85,134 L 93,135 L 94,136 L 95,154 L 96,155 L 96,167 L 95,168 L 96,170 L 94,173 L 94,178 L 95,178 L 94,176 L 96,171 L 97,172 L 102,172 L 104,175 L 105,174 L 109,176 L 108,178 L 111,189 L 109,190 L 109,193 L 111,194 L 108,198 L 110,199 L 109,200 L 110,204 L 112,206 L 110,208 L 111,207 L 112,210 L 110,213 L 111,214 L 107,217 L 112,218 L 109,220 L 111,221 L 110,224 L 113,225 L 119,223 L 123,224 L 126,222 L 125,215 L 123,214 L 122,211 L 125,209 L 123,202 L 124,200 L 120,196 L 123,194 L 124,195 L 120,192 L 121,189 L 123,190 L 123,184 L 121,183 L 123,181 L 121,179 L 122,171 L 119,171 L 120,172 L 119,173 L 117,173 L 115,175 L 113,174 L 112,175 L 111,173 L 105,174 L 103,171 L 99,171 L 97,169 L 94,135 L 95,134 L 98,135 L 101,132 L 106,134 L 113,132 L 114,130 L 112,132 L 110,130 L 116,126 L 114,124 L 114,127 L 112,128 L 109,123 L 110,121 L 115,121 L 114,120 L 115,118 L 114,113 L 117,111 L 116,100 L 111,94 L 112,90 L 113,93 L 115,94 L 114,93 L 115,92 L 113,90 L 115,85 L 119,88 L 118,90 L 117,89 L 118,92 L 120,94 L 121,93 L 122,94 L 121,96 L 123,98 L 122,102 L 124,103 L 125,109 L 128,112 L 123,113 L 121,111 L 122,109 L 121,109 L 120,113 L 122,115 L 123,114 L 125,115 L 129,111 L 126,109 L 124,104 L 125,103 L 128,105 L 132,105 L 133,106 L 132,107 L 134,108 L 134,111 L 136,112 L 134,114 L 132,114 L 131,116 L 132,117 L 130,118 L 129,121 L 123,128 L 123,130 L 120,131 L 119,133 L 117,132 L 119,134 L 118,137 L 115,140 L 114,139 L 110,144 L 113,142 L 114,143 L 113,146 L 111,148 L 108,148 L 107,147 L 108,145 L 106,147 L 104,145 L 105,144 L 104,147 L 107,150 L 112,149 L 113,150 L 112,151 L 113,150 L 114,151 L 115,150 L 112,149 L 116,146 L 119,148 L 118,149 L 122,152 L 123,155 L 123,152 L 121,150 L 121,145 L 120,145 L 121,150 L 120,151 L 118,149 L 119,148 L 118,147 L 118,142 L 119,141 L 120,142 L 119,139 L 120,138 L 121,139 L 122,137 L 123,138 L 139,122 L 142,117 L 159,117 L 160,116 L 162,117 L 163,116 L 168,116 L 169,117 L 170,116 L 184,116 L 185,114 L 184,115 L 160,115 L 159,116 L 145,116 L 140,112 L 141,110 L 139,105 L 135,106 L 133,104 L 137,102 L 140,102 L 132,82 L 124,71 L 122,72 Z M 122,223 L 123,222 L 124,223 L 123,224 Z M 119,220 L 121,219 L 122,221 L 120,222 Z M 112,217 L 113,216 L 114,217 L 113,218 Z M 109,216 L 110,215 L 111,216 L 110,217 Z M 119,215 L 120,214 L 121,215 L 120,216 Z M 117,215 L 118,214 L 120,216 L 118,217 Z M 116,214 L 117,217 L 115,218 L 114,217 Z M 116,214 L 117,213 L 118,214 L 117,215 Z M 112,214 L 113,213 L 115,215 L 113,216 Z M 119,213 L 120,212 L 121,213 L 120,214 Z M 120,212 L 121,211 L 122,212 L 121,213 Z M 110,202 L 111,201 L 112,202 L 111,203 Z M 115,200 L 116,201 L 115,204 L 118,206 L 118,210 L 116,211 L 117,212 L 116,213 L 114,212 L 114,207 L 112,205 Z M 121,200 L 122,199 L 124,200 L 123,201 Z M 112,200 L 113,199 L 114,200 L 113,201 Z M 118,198 L 121,201 L 119,202 L 124,203 L 124,207 L 122,210 L 121,209 L 122,210 L 120,212 L 118,211 L 119,210 L 117,203 Z M 113,199 L 114,198 L 116,199 L 115,200 Z M 118,197 L 120,196 L 121,198 L 119,199 Z M 115,197 L 116,196 L 117,198 L 116,199 Z M 118,195 L 119,194 L 121,195 L 120,196 Z M 118,193 L 119,192 L 120,193 L 119,194 Z M 115,191 L 116,190 L 117,191 L 116,192 Z M 111,190 L 112,189 L 114,190 L 113,191 Z M 115,189 L 116,188 L 118,189 L 117,190 Z M 120,185 L 121,186 L 120,190 L 119,189 Z M 116,184 L 117,183 L 118,185 L 117,186 Z M 110,184 L 111,183 L 113,184 L 112,185 Z M 112,183 L 113,182 L 114,183 L 113,184 Z M 119,182 L 120,181 L 121,183 L 120,184 Z M 110,181 L 111,180 L 112,181 L 111,182 Z M 119,180 L 120,179 L 121,180 L 120,181 Z M 113,180 L 114,179 L 115,181 L 114,182 Z M 117,178 L 118,177 L 119,178 L 118,179 Z M 118,177 L 119,176 L 120,177 L 119,178 Z M 109,178 L 110,176 L 113,177 L 110,179 Z M 117,174 L 118,177 L 114,179 L 113,178 Z M 117,174 L 118,173 L 121,174 L 120,175 Z M 109,149 L 110,148 L 111,149 L 110,150 Z M 119,135 L 120,134 L 121,135 L 120,136 Z M 96,134 L 97,133 L 99,134 L 98,135 Z M 124,132 L 125,135 L 121,138 L 120,136 Z M 119,133 L 120,132 L 121,133 L 120,134 Z M 108,131 L 109,130 L 110,132 L 109,133 Z M 95,131 L 96,130 L 97,131 L 96,132 Z M 127,129 L 128,130 L 127,133 L 126,132 Z M 130,128 L 131,127 L 132,128 L 131,129 Z M 126,126 L 127,125 L 128,127 L 127,128 Z M 104,130 L 106,129 L 107,125 L 111,126 L 111,128 L 108,131 Z M 86,126 L 88,124 L 94,124 L 96,126 L 96,130 L 89,132 L 88,128 Z M 134,124 L 135,123 L 136,124 L 135,125 Z M 103,123 L 105,124 L 106,128 L 104,129 L 105,131 L 104,132 L 101,132 L 99,125 Z M 133,123 L 134,122 L 135,123 L 134,124 Z M 136,121 L 137,120 L 139,121 L 138,122 Z M 136,118 L 138,117 L 139,119 L 137,120 Z M 99,118 L 100,117 L 101,118 L 100,119 Z M 140,113 L 141,114 L 140,117 L 139,116 Z M 102,113 L 103,114 L 102,119 L 101,118 Z M 113,112 L 115,114 L 114,118 L 111,120 L 110,119 L 111,116 L 109,114 Z M 101,112 L 102,111 L 103,112 L 102,113 Z M 138,108 L 140,110 L 139,112 L 136,111 Z M 101,108 L 102,107 L 103,109 L 102,110 Z M 133,107 L 134,106 L 139,107 L 136,110 Z M 112,105 L 116,106 L 116,109 L 114,112 L 112,112 L 110,110 L 112,108 L 111,107 Z M 101,105 L 102,104 L 103,105 L 102,106 Z M 111,103 L 112,102 L 113,103 L 112,104 Z M 102,103 L 103,102 L 104,103 L 103,104 Z M 133,101 L 134,100 L 135,101 L 134,102 Z M 105,101 L 106,100 L 107,101 L 106,102 Z M 131,100 L 132,99 L 133,100 L 132,101 Z M 106,100 L 107,99 L 108,100 L 107,101 Z M 105,98 L 106,97 L 107,99 L 106,100 Z M 111,96 L 113,97 L 114,100 L 115,99 L 116,100 L 115,104 L 111,101 L 110,103 L 108,102 Z M 108,96 L 109,97 L 108,100 L 107,99 Z M 108,96 L 109,95 L 110,96 L 109,97 Z M 128,95 L 129,94 L 130,95 L 129,96 Z M 109,95 L 110,94 L 111,95 L 110,96 Z M 127,94 L 128,93 L 129,94 L 128,95 Z M 105,95 L 106,93 L 108,94 L 106,96 Z M 107,92 L 108,91 L 109,92 L 108,93 Z M 118,92 L 119,89 L 121,91 L 119,93 Z M 112,84 L 113,87 L 111,90 L 110,85 Z M 126,83 L 128,84 L 127,85 L 129,84 L 133,88 L 130,89 L 133,90 L 132,92 L 130,91 L 133,93 L 132,94 L 130,94 L 128,92 L 127,87 L 124,85 Z M 127,83 L 128,82 L 130,83 L 129,84 Z M 123,82 L 124,81 L 126,82 L 125,83 Z M 112,80 L 113,81 L 112,84 L 111,83 Z M 122,80 L 123,79 L 125,80 L 124,81 Z M 124,79 L 125,78 L 126,79 L 125,80 Z M 122,78 L 123,77 L 124,78 L 123,79 Z M 119,77 L 122,79 L 120,82 L 121,81 L 122,83 L 120,85 L 122,83 L 125,84 L 124,89 L 126,88 L 127,90 L 124,92 L 127,93 L 128,96 L 126,98 L 130,99 L 129,100 L 131,101 L 132,103 L 131,104 L 127,104 L 124,100 L 122,92 L 116,82 Z M 123,77 L 124,76 L 126,77 L 125,78 Z M 114,75 L 115,74 L 116,75 L 115,76 Z M 120,72 L 121,71 L 122,72 L 121,73 Z M 120,70 L 121,73 L 115,84 L 112,79 L 116,75 L 115,74 L 117,72 L 118,73 L 117,72 Z M 115,69 L 114,68 L 109,68 L 102,79 L 110,69 L 111,70 L 110,72 L 113,69 Z M 101,40 L 101,42 L 105,46 L 105,42 L 103,43 L 102,42 L 103,41 L 102,42 Z M 96,37 L 94,40 L 97,43 L 96,47 L 98,49 L 96,52 L 94,60 L 87,65 L 94,68 L 97,68 L 101,65 L 103,68 L 107,64 L 106,61 L 107,50 L 105,48 L 104,51 L 101,50 L 102,49 L 98,45 L 99,43 L 97,41 L 99,40 L 97,39 L 99,38 Z M 101,53 L 102,52 L 103,53 L 102,54 Z M 105,50 L 106,51 L 106,56 L 103,58 L 102,54 L 103,53 L 104,55 Z M 104,36 L 109,40 L 110,42 L 109,43 L 117,53 L 116,55 L 118,54 L 117,53 L 118,50 L 114,44 L 108,39 L 106,35 Z M 116,50 L 117,49 L 118,51 L 117,52 Z M 115,49 L 116,48 L 117,49 L 116,50 Z M 109,43 L 111,42 L 114,46 L 113,47 Z M 104,28 L 100,31 L 102,32 L 102,30 Z"/>
<path fill="#141216" fill-rule="evenodd" d="M 91,273 L 99,272 L 98,271 L 97,272 L 93,271 Z M 80,269 L 77,267 L 74,270 L 76,271 L 74,270 L 75,269 Z M 44,267 L 44,268 L 49,270 L 46,271 L 56,271 L 60,274 L 63,275 L 66,274 L 67,275 L 63,273 L 62,274 L 56,270 L 55,271 L 51,270 L 50,267 Z M 49,270 L 50,269 L 51,270 L 50,271 Z M 103,264 L 105,267 L 111,267 L 112,268 L 117,268 L 118,266 L 120,268 L 124,264 L 121,267 L 118,266 L 120,265 L 116,264 L 117,265 L 115,267 Z M 106,266 L 107,265 L 108,266 L 107,267 Z M 104,266 L 105,265 L 106,266 L 105,267 Z M 59,266 L 63,270 L 60,267 L 61,266 L 70,267 L 65,263 L 62,263 Z M 158,262 L 151,263 L 146,267 L 148,266 L 150,267 L 151,265 L 155,266 L 155,264 L 156,263 L 157,265 Z M 152,265 L 153,264 L 154,265 L 153,266 Z M 137,255 L 138,256 L 142,255 L 143,257 L 144,256 L 142,254 L 139,256 L 138,255 L 139,253 Z M 178,247 L 180,249 L 181,247 L 179,248 Z M 179,248 L 180,247 L 181,248 L 180,249 Z M 170,247 L 167,250 L 169,251 Z M 118,244 L 119,247 L 118,248 L 119,247 L 120,249 L 125,246 L 120,247 Z M 169,245 L 167,245 L 164,241 L 162,243 L 165,244 L 162,246 L 159,245 L 157,241 L 155,244 L 152,245 L 151,244 L 152,241 L 150,242 L 149,241 L 150,238 L 148,239 L 149,240 L 148,241 L 146,240 L 147,242 L 145,247 L 143,246 L 144,243 L 138,244 L 131,254 L 128,253 L 130,252 L 126,249 L 127,248 L 123,249 L 121,251 L 122,255 L 120,257 L 113,256 L 112,259 L 113,257 L 114,260 L 116,256 L 120,259 L 121,257 L 123,258 L 123,256 L 126,253 L 130,254 L 133,257 L 129,261 L 130,262 L 128,263 L 133,264 L 131,266 L 130,265 L 131,266 L 130,267 L 125,266 L 126,267 L 125,270 L 122,269 L 123,270 L 128,270 L 130,269 L 129,268 L 134,266 L 135,267 L 137,266 L 140,267 L 138,265 L 140,264 L 140,262 L 135,264 L 131,262 L 134,257 L 132,256 L 132,253 L 134,251 L 134,249 L 139,244 L 142,246 L 139,247 L 138,249 L 141,247 L 143,250 L 145,249 L 144,248 L 146,246 L 147,248 L 149,246 L 157,250 L 158,247 L 160,248 L 165,247 L 166,245 L 167,246 Z M 126,268 L 128,267 L 129,269 L 127,270 Z M 121,257 L 122,256 L 123,257 L 122,258 Z M 113,257 L 114,256 L 115,257 L 114,258 Z M 125,251 L 126,250 L 128,251 L 127,252 Z M 155,244 L 157,247 L 156,248 L 153,247 Z M 141,244 L 142,243 L 143,244 L 142,245 Z M 150,242 L 151,241 L 152,242 L 151,243 Z M 146,243 L 149,241 L 150,242 L 149,244 Z M 169,234 L 173,240 L 171,242 L 171,244 L 173,241 L 177,245 L 181,245 L 184,243 L 185,244 L 182,241 L 185,240 L 183,239 L 185,237 L 184,238 L 181,237 L 180,238 L 177,237 L 172,238 L 171,236 L 173,235 L 171,236 Z M 176,244 L 177,243 L 178,244 L 177,245 Z M 182,243 L 183,242 L 184,243 L 183,244 Z M 180,242 L 181,241 L 183,242 L 182,243 Z M 179,239 L 180,238 L 182,239 L 181,240 Z M 130,209 L 127,210 L 126,212 L 125,210 L 123,211 L 124,214 L 126,215 L 127,220 L 130,220 L 131,216 L 130,215 L 132,211 Z M 127,215 L 129,216 L 128,220 L 126,217 Z M 124,213 L 125,212 L 126,213 L 125,214 Z M 126,212 L 128,211 L 129,213 L 127,214 Z M 130,211 L 131,210 L 132,211 L 131,212 Z M 115,201 L 113,205 L 115,207 L 115,212 L 116,212 L 115,211 L 117,210 L 116,205 L 114,204 Z M 129,200 L 127,200 L 128,202 L 127,201 L 128,200 L 130,201 L 130,203 L 128,204 L 128,207 L 130,205 Z M 123,195 L 121,196 L 124,198 L 122,200 L 125,203 L 125,207 L 124,202 L 125,200 Z M 123,200 L 124,199 L 125,200 L 124,201 Z M 124,188 L 123,191 L 121,190 L 121,192 L 124,193 Z M 137,175 L 136,176 L 140,181 L 153,193 L 153,191 Z M 123,172 L 122,174 L 122,179 L 123,180 Z M 81,156 L 80,160 L 81,161 L 79,167 L 80,168 L 77,169 L 77,171 L 80,169 Z M 120,135 L 122,139 L 121,140 L 120,139 L 121,142 L 120,143 L 119,142 L 119,144 L 122,145 L 122,150 L 123,151 L 124,150 L 125,153 L 123,156 L 122,154 L 122,156 L 119,158 L 114,154 L 115,153 L 113,151 L 112,152 L 114,153 L 118,159 L 121,160 L 119,161 L 121,160 L 124,162 L 122,164 L 121,163 L 124,167 L 122,169 L 117,169 L 118,170 L 117,171 L 112,170 L 111,172 L 110,171 L 104,171 L 105,173 L 111,172 L 112,174 L 113,173 L 115,174 L 117,172 L 119,172 L 118,171 L 119,170 L 122,170 L 123,168 L 127,166 L 128,167 L 125,170 L 127,171 L 125,172 L 126,176 L 125,178 L 128,179 L 127,168 L 128,167 L 133,173 L 134,170 L 128,162 L 129,159 L 126,148 L 123,146 L 123,143 L 122,144 L 121,143 L 121,140 L 123,139 Z M 126,178 L 127,177 L 128,178 L 127,179 Z M 126,172 L 128,174 L 127,177 L 125,175 Z M 111,172 L 112,171 L 113,172 L 112,173 Z M 114,171 L 115,170 L 116,171 L 115,172 Z M 124,166 L 125,165 L 126,166 L 125,167 Z M 123,165 L 124,164 L 125,165 L 124,166 Z M 124,164 L 125,163 L 126,164 L 125,165 Z M 122,164 L 123,163 L 124,164 L 123,165 Z M 123,163 L 124,162 L 125,163 L 124,164 Z M 127,161 L 128,160 L 129,161 L 128,162 Z M 123,159 L 124,158 L 125,159 L 124,160 Z M 120,159 L 121,158 L 122,159 L 121,160 Z M 125,158 L 127,157 L 128,159 L 126,160 Z M 119,158 L 120,157 L 121,158 L 120,159 Z M 122,147 L 123,146 L 124,147 L 123,148 Z M 72,129 L 69,130 L 70,133 L 66,142 L 67,144 L 68,142 L 67,140 L 71,134 Z M 70,131 L 71,130 L 72,131 L 71,132 Z M 110,126 L 107,126 L 106,130 L 101,131 L 108,130 L 109,132 L 108,129 L 110,128 Z M 74,118 L 70,119 L 72,119 L 73,120 L 72,121 Z M 135,108 L 137,108 L 138,109 L 137,111 L 139,111 L 137,108 L 138,107 Z M 115,86 L 114,90 L 116,92 L 115,93 L 116,94 L 114,95 L 112,93 L 112,91 L 113,96 L 117,100 L 117,105 L 118,106 L 118,111 L 115,113 L 116,114 L 115,120 L 117,121 L 118,119 L 120,122 L 119,123 L 114,123 L 119,124 L 120,122 L 119,117 L 121,116 L 119,113 L 120,109 L 122,108 L 123,112 L 124,111 L 127,112 L 125,111 L 128,108 L 125,110 L 123,103 L 121,107 L 117,100 L 117,95 L 118,94 L 121,98 L 121,100 L 120,95 L 118,93 L 117,94 L 115,91 L 116,87 Z M 117,114 L 119,113 L 120,116 L 119,117 Z M 118,106 L 119,105 L 121,108 L 119,109 Z M 125,85 L 128,87 L 129,92 L 132,93 L 131,92 L 132,90 L 129,89 L 132,88 L 129,85 L 128,86 L 126,85 L 129,83 Z M 129,91 L 130,90 L 132,91 L 131,92 Z M 0,84 L 0,116 L 3,115 L 5,116 L 8,115 L 9,116 L 10,115 L 11,116 L 12,115 L 13,116 L 16,115 L 18,116 L 20,115 L 21,116 L 24,115 L 56,115 L 62,113 L 64,108 L 63,105 L 68,87 L 67,83 L 66,84 L 63,83 L 61,84 L 60,83 L 52,85 L 51,84 L 41,84 L 40,86 L 39,84 L 31,84 L 30,85 L 29,84 L 25,85 L 23,84 L 18,85 L 14,84 L 13,85 L 12,83 L 10,84 L 8,83 L 7,84 Z M 58,85 L 59,84 L 60,85 L 59,86 Z M 49,85 L 50,84 L 52,85 L 51,86 Z M 46,85 L 47,84 L 48,85 L 47,86 Z M 5,85 L 6,84 L 7,85 L 6,86 Z M 185,83 L 181,84 L 178,82 L 169,84 L 166,82 L 165,85 L 162,85 L 161,84 L 162,83 L 161,84 L 159,83 L 156,84 L 155,83 L 151,84 L 149,83 L 148,84 L 146,83 L 136,83 L 137,84 L 134,85 L 133,83 L 141,102 L 134,104 L 135,105 L 139,104 L 142,108 L 141,112 L 145,115 L 184,114 L 185,113 L 185,85 L 184,84 Z M 170,84 L 171,83 L 173,84 L 172,85 Z M 166,84 L 167,83 L 169,84 L 168,85 Z M 144,84 L 145,83 L 146,84 L 145,85 Z M 98,41 L 100,43 L 99,45 L 102,48 L 105,47 L 107,49 L 108,47 L 112,51 L 111,53 L 112,51 L 113,52 L 113,54 L 111,56 L 109,56 L 108,53 L 107,54 L 108,56 L 115,57 L 119,54 L 119,51 L 119,54 L 117,55 L 113,48 L 106,41 L 105,41 L 106,42 L 105,47 L 100,41 Z M 115,55 L 116,54 L 117,55 L 116,56 Z M 106,46 L 107,45 L 108,46 L 107,47 Z M 104,27 L 105,31 L 104,32 L 103,30 L 103,34 L 104,35 L 106,34 L 118,49 L 111,39 L 108,31 Z"/>
<path fill="#01030a" fill-rule="evenodd" d="M 75,270 L 81,271 L 81,270 Z M 61,267 L 64,270 L 63,269 L 64,268 L 69,268 Z M 62,268 L 63,267 L 64,268 L 63,269 Z M 88,67 L 83,64 L 80,54 L 81,52 L 70,52 L 69,53 L 68,52 L 59,52 L 58,51 L 57,52 L 48,52 L 47,53 L 46,52 L 45,53 L 44,52 L 43,53 L 39,52 L 38,53 L 37,52 L 35,53 L 33,52 L 28,53 L 7,52 L 6,53 L 5,52 L 4,53 L 3,52 L 0,53 L 0,83 L 7,83 L 8,82 L 9,83 L 12,82 L 13,84 L 14,83 L 18,84 L 19,83 L 24,84 L 26,83 L 30,84 L 31,83 L 39,83 L 40,85 L 41,83 L 51,83 L 52,84 L 50,85 L 53,83 L 59,83 L 60,82 L 61,83 L 63,82 L 66,83 L 67,82 L 68,84 L 71,77 L 76,72 Z M 108,57 L 109,59 L 108,62 L 111,66 L 118,67 L 124,70 L 131,77 L 134,84 L 136,84 L 135,83 L 136,82 L 146,82 L 147,83 L 149,82 L 150,83 L 159,82 L 162,84 L 165,84 L 166,81 L 169,83 L 167,84 L 169,83 L 172,84 L 170,83 L 178,81 L 181,83 L 185,82 L 185,51 L 181,50 L 175,52 L 173,51 L 172,52 L 171,51 L 166,51 L 165,52 L 163,51 L 160,52 L 159,51 L 158,52 L 156,51 L 153,52 L 152,51 L 148,52 L 145,51 L 143,52 L 142,51 L 138,52 L 126,51 L 121,52 L 119,49 L 120,54 L 115,58 Z M 161,83 L 162,82 L 163,83 L 162,84 Z M 108,48 L 109,55 L 111,55 L 112,52 Z M 110,52 L 111,51 L 112,53 L 111,54 Z"/>
<path fill="#010107" fill-rule="evenodd" d="M 63,268 L 65,270 L 71,270 L 70,268 L 69,269 L 64,269 Z M 124,266 L 120,269 L 106,269 L 104,268 L 102,271 L 93,270 L 94,271 L 98,270 L 99,271 L 121,270 Z M 127,266 L 129,266 L 128,265 L 129,264 L 132,264 L 127,264 Z M 119,259 L 116,257 L 116,259 L 112,263 L 105,263 L 104,262 L 101,262 L 101,263 L 116,265 L 115,261 L 117,258 Z M 126,200 L 126,208 L 127,207 Z M 124,178 L 125,198 L 126,198 L 126,191 L 125,190 L 126,187 Z M 125,166 L 126,167 L 123,169 L 124,176 L 125,176 L 124,175 L 124,170 L 126,168 Z M 81,150 L 78,168 L 79,159 L 81,155 L 80,153 Z M 118,120 L 117,122 L 111,122 L 113,123 L 114,122 L 119,122 Z M 118,95 L 118,100 L 121,103 L 121,106 L 122,103 Z M 0,0 L 0,52 L 3,51 L 4,52 L 5,51 L 6,52 L 7,51 L 12,51 L 13,52 L 15,51 L 16,52 L 17,51 L 28,52 L 29,51 L 43,52 L 44,51 L 45,52 L 46,51 L 47,52 L 48,51 L 57,51 L 58,50 L 59,51 L 68,51 L 69,52 L 70,51 L 81,51 L 82,50 L 81,48 L 82,43 L 79,39 L 78,33 L 81,28 L 81,21 L 86,14 L 87,16 L 92,15 L 98,22 L 97,23 L 96,22 L 97,25 L 96,26 L 93,23 L 93,25 L 90,26 L 89,23 L 88,23 L 88,25 L 85,27 L 87,26 L 96,27 L 99,25 L 105,26 L 110,32 L 112,39 L 114,40 L 121,51 L 126,50 L 129,51 L 138,51 L 139,50 L 143,51 L 144,50 L 146,51 L 149,50 L 153,51 L 154,50 L 157,51 L 159,50 L 160,51 L 161,50 L 164,51 L 171,50 L 172,51 L 173,50 L 175,51 L 181,49 L 185,50 L 185,0 Z M 35,46 L 36,45 L 37,46 L 36,47 Z M 179,45 L 180,44 L 181,45 L 180,46 Z M 182,44 L 183,43 L 184,44 L 183,45 Z"/>
</svg>