<svg xmlns="http://www.w3.org/2000/svg" width="512" height="512" viewBox="0 0 280 280">
<path fill="#c3c3c3" fill-rule="evenodd" d="M 135,0 L 134,2 L 133,1 L 133,3 L 131,5 L 130,4 L 131,5 L 129,7 L 130,9 L 128,10 L 129,11 L 129,127 L 127,129 L 11,129 L 10,128 L 9,130 L 8,129 L 4,130 L 5,131 L 3,133 L 1,133 L 0,135 L 0,144 L 1,146 L 3,146 L 5,148 L 4,149 L 8,150 L 9,149 L 10,151 L 11,150 L 127,150 L 129,152 L 129,268 L 128,269 L 130,270 L 129,271 L 131,274 L 130,275 L 131,274 L 133,276 L 133,278 L 134,277 L 135,279 L 144,279 L 145,277 L 146,278 L 146,276 L 148,274 L 149,275 L 148,274 L 150,272 L 149,270 L 151,269 L 150,268 L 150,152 L 152,150 L 268,150 L 269,151 L 270,149 L 271,150 L 275,149 L 274,148 L 276,146 L 278,146 L 279,144 L 279,135 L 278,133 L 276,133 L 274,131 L 275,130 L 271,129 L 270,130 L 269,128 L 268,129 L 152,129 L 150,127 L 150,11 L 151,10 L 149,9 L 150,8 L 148,5 L 149,4 L 148,5 L 146,3 L 146,1 L 145,2 L 144,0 Z"/>
</svg>